SplineFontDB: 3.0
FontName: RopaSans-Regular
FullName: Ropa Sans
FamilyName: Ropa Sans
Weight: Book
Copyright: Copyright (c) 2011, Botjo Nikoltchev (post@carrois.com www.carrois.com), with Reserved Font Name "Ropa Sans"
Version: 1.002
ItalicAngle: 0
UnderlinePosition: -50
UnderlineWidth: 50
Ascent: 800
Descent: 200
sfntRevision: 0x00010042
LayerCount: 2
Layer: 0 1 "Back"  1
Layer: 1 1 "Fore"  0
XUID: [1021 328 1305943742 1423142]
FSType: 0
OS2Version: 4
OS2_WeightWidthSlopeOnly: 1
OS2_UseTypoMetrics: 1
CreationTime: 1323942846
ModificationTime: 1327090721
PfmFamily: 17
TTFWeight: 400
TTFWidth: 5
LineGap: 0
VLineGap: 0
Panose: 2 0 0 0 0 0 0 0 0 0
OS2TypoAscent: 41
OS2TypoAOffset: 1
OS2TypoDescent: -31
OS2TypoDOffset: 1
OS2TypoLinegap: 0
OS2WinAscent: 0
OS2WinAOffset: 1
OS2WinDescent: 0
OS2WinDOffset: 1
HheadAscent: 0
HheadAOffset: 1
HheadDescent: 0
HheadDOffset: 1
OS2SubXSize: 700
OS2SubYSize: 650
OS2SubXOff: 0
OS2SubYOff: 140
OS2SupXSize: 700
OS2SupYSize: 650
OS2SupXOff: 0
OS2SupYOff: 477
OS2StrikeYSize: 50
OS2StrikeYPos: 250
OS2Vendor: 'PYRS'
OS2CodePages: 00000001.00000000
OS2UnicodeRanges: 8000006f.10000002.00000000.00000000
Lookup: 258 0 0 "'kern' Horizontal Kerning in Latin lookup 0"  {"'kern' Horizontal Kerning in Latin lookup 0 subtable"  } ['kern' ('DFLT' <'dflt' > 'latn' <'dflt' > ) ]
DEI: 91125
TtTable: prep
PUSHB_1
 0
CALL
SVTCA[y-axis]
PUSHB_3
 1
 1
 2
CALL
SVTCA[y-axis]
PUSHB_8
 1
 74
 60
 47
 34
 20
 0
 8
CALL
SVTCA[y-axis]
PUSHB_3
 2
 5
 7
CALL
PUSHB_1
 0
DUP
RCVT
RDTG
ROUND[Black]
RTG
WCVTP
MPPEM
PUSHB_1
 96
GT
IF
PUSHB_1
 1
ELSE
PUSHB_1
 0
EIF
PUSHB_1
 1
INSTCTRL
EndTTInstrs
TtTable: fpgm
PUSHB_1
 0
FDEF
MPPEM
PUSHB_1
 9
LT
IF
PUSHB_2
 1
 1
INSTCTRL
EIF
PUSHW_1
 511
SCANCTRL
PUSHB_1
 68
SCVTCI
PUSHB_2
 9
 3
SDS
SDB
ENDF
PUSHB_1
 1
FDEF
DUP
DUP
RCVT
ROUND[Black]
WCVTP
PUSHB_1
 1
ADD
ENDF
PUSHB_1
 2
FDEF
PUSHB_1
 1
LOOPCALL
POP
ENDF
PUSHB_1
 3
FDEF
DUP
GC[cur]
PUSHB_1
 3
CINDEX
GC[cur]
GT
IF
SWAP
EIF
DUP
ROLL
DUP
ROLL
MD[grid]
ABS
ROLL
DUP
GC[cur]

StartChar: .notdef
Encoding: 65536 -1 0
Width: 548
Flags: W
LayerCount: 2
Fore
SplineSet
80 683 m 1,0,-1
 468 683 l 1,1,-1
 468 0 l 1,2,-1
 80 0 l 1,3,-1
 80 683 l 1,0,-1
400 68 m 1,4,-1
 400 615 l 1,5,-1
 148 615 l 1,6,-1
 148 68 l 1,7,-1
 400 68 l 1,4,-1
EndSplineSet
EndChar

StartChar: exclam
Encoding: 33 33 23
Width: 211
Flags: W
LayerCount: 2
Fore
SplineSet
65 200 m 1,0,-1
 58 695 l 1,1,-1
 153 695 l 1,2,-1
 146 200 l 1,3,-1
 65 200 l 1,0,-1
161 33 m 2,4,5
 161 -12 161 -12 105 -12 c 0,6,7
 50 -12 50 -12 50 33 c 2,8,-1
 50 62 l 2,9,10
 50 108 50 108 105 108 c 0,11,12
 161 108 161 108 161 62 c 2,13,-1
 161 33 l 2,4,5
EndSplineSet
EndChar

StartChar: quotedbl
Encoding: 34 34 24
Width: 375
Flags: W
LayerCount: 2
Fore
SplineSet
75 683 m 1,0,-1
 160 683 l 1,1,-1
 160 429 l 1,2,-1
 75 429 l 1,3,-1
 75 683 l 1,0,-1
215 683 m 1,4,-1
 300 683 l 1,5,-1
 300 429 l 1,6,-1
 215 429 l 1,7,-1
 215 683 l 1,4,-1
EndSplineSet
EndChar

StartChar: numbersign
Encoding: 35 35 25
Width: 520
Flags: W
LayerCount: 2
Fore
SplineSet
423 125 m 1,0,-1
 423 0 l 1,1,-1
 338 0 l 1,2,-1
 338 125 l 1,3,-1
 182 125 l 1,4,-1
 182 0 l 1,5,-1
 97 0 l 1,6,-1
 97 125 l 1,7,-1
 17 125 l 1,8,-1
 17 195 l 1,9,-1
 97 195 l 1,10,-1
 97 418 l 1,11,-1
 17 418 l 1,12,-1
 17 488 l 1,13,-1
 97 488 l 1,14,-1
 97 613 l 1,15,-1
 182 613 l 1,16,-1
 182 488 l 1,17,-1
 338 488 l 1,18,-1
 338 613 l 1,19,-1
 423 613 l 1,20,-1
 423 488 l 1,21,-1
 503 488 l 1,22,-1
 503 418 l 1,23,-1
 423 418 l 1,24,-1
 423 195 l 1,25,-1
 503 195 l 1,26,-1
 503 125 l 1,27,-1
 423 125 l 1,0,-1
338 418 m 1,28,-1
 182 418 l 1,29,-1
 182 195 l 1,30,-1
 338 195 l 1,31,-1
 338 418 l 1,28,-1
EndSplineSet
EndChar

StartChar: dollar
Encoding: 36 36 26
Width: 520
Flags: W
LayerCount: 2
Fore
SplineSet
226 -94 m 1,0,-1
 226 -12 l 1,1,2
 194 -11 194 -11 162.5 -6 c 128,-1,3
 131 -1 131 -1 99 5 c 1,4,-1
 101 78 l 1,5,6
 138 70 138 70 169 65.5 c 128,-1,7
 200 61 200 61 232 61 c 0,8,9
 304 61 304 61 332 83 c 128,-1,10
 360 105 360 105 360 147 c 2,11,-1
 360 167 l 2,12,13
 360 183 360 183 356.5 195 c 128,-1,14
 353 207 353 207 343.5 216 c 128,-1,15
 334 225 334 225 317 233 c 128,-1,16
 300 241 300 241 273 249 c 2,17,-1
 211 268 l 2,18,19
 171 280 171 280 144.5 293.5 c 128,-1,20
 118 307 118 307 102.5 326.5 c 128,-1,21
 87 346 87 346 80.5 373.5 c 128,-1,22
 74 401 74 401 74 441 c 2,23,-1
 74 446 l 2,24,25
 74 519 74 519 109 560 c 128,-1,26
 144 601 144 601 226 610 c 1,27,-1
 226 695 l 1,28,-1
 301 695 l 1,29,-1
 301 612 l 1,30,31
 328 610 328 610 355.5 606.5 c 128,-1,32
 383 603 383 603 410 599 c 1,33,-1
 408 526 l 1,34,35
 380 531 380 531 346 535.5 c 128,-1,36
 312 540 312 540 277 540 c 0,37,38
 211 540 211 540 185 518 c 128,-1,39
 159 496 159 496 159 454 c 2,40,-1
 159 434 l 2,41,42
 159 416 159 416 161.5 403.5 c 128,-1,43
 164 391 164 391 172 381 c 128,-1,44
 180 371 180 371 195 363.5 c 128,-1,45
 210 356 210 356 235 349 c 2,46,-1
 298 330 l 2,47,48
 341 317 341 317 369 302.5 c 128,-1,49
 397 288 397 288 414 268.5 c 128,-1,50
 431 249 431 249 438 223 c 128,-1,51
 445 197 445 197 445 160 c 2,52,-1
 445 155 l 2,53,54
 445 88 445 88 413 46 c 128,-1,55
 381 4 381 4 301 -7 c 1,56,-1
 301 -94 l 1,57,-1
 226 -94 l 1,0,-1
EndSplineSet
EndChar

StartChar: percent
Encoding: 37 37 27
Width: 922
Flags: W
LayerCount: 2
Fore
SplineSet
341 0 m 1,0,-1
 254 0 l 1,1,-1
 589 613 l 1,2,-1
 676 613 l 1,3,-1
 341 0 l 1,0,-1
380 423 m 2,4,5
 380 346 380 346 341 304.5 c 128,-1,6
 302 263 302 263 223 263 c 256,7,8
 144 263 144 263 104.5 304.5 c 128,-1,9
 65 346 65 346 65 423 c 2,10,-1
 65 453 l 2,11,12
 65 530 65 530 104.5 571.5 c 128,-1,13
 144 613 144 613 223 613 c 256,14,15
 302 613 302 613 341 571.5 c 128,-1,16
 380 530 380 530 380 453 c 2,17,-1
 380 423 l 2,4,5
295 453 m 2,18,19
 295 499 295 499 277 518.5 c 128,-1,20
 259 538 259 538 223 538 c 256,21,22
 187 538 187 538 168.5 518 c 128,-1,23
 150 498 150 498 150 453 c 2,24,-1
 150 423 l 2,25,26
 150 378 150 378 168 358 c 128,-1,27
 186 338 186 338 223 338 c 0,28,29
 259 338 259 338 277 358 c 128,-1,30
 295 378 295 378 295 423 c 2,31,-1
 295 453 l 2,18,19
857 148 m 2,32,33
 857 71 857 71 818 29.5 c 128,-1,34
 779 -12 779 -12 700 -12 c 256,35,36
 621 -12 621 -12 581.5 29.5 c 128,-1,37
 542 71 542 71 542 148 c 2,38,-1
 542 178 l 2,39,40
 542 255 542 255 581.5 296.5 c 128,-1,41
 621 338 621 338 700 338 c 256,42,43
 779 338 779 338 818 296.5 c 128,-1,44
 857 255 857 255 857 178 c 2,45,-1
 857 148 l 2,32,33
772 178 m 2,46,47
 772 224 772 224 754 243.5 c 128,-1,48
 736 263 736 263 700 263 c 256,49,50
 664 263 664 263 645.5 243 c 128,-1,51
 627 223 627 223 627 178 c 2,52,-1
 627 148 l 2,53,54
 627 103 627 103 645 83 c 128,-1,55
 663 63 663 63 700 63 c 0,56,57
 736 63 736 63 754 83 c 128,-1,58
 772 103 772 103 772 148 c 2,59,-1
 772 178 l 2,46,47
EndSplineSet
EndChar

StartChar: ampersand
Encoding: 38 38 28
Width: 530
Flags: W
LayerCount: 2
Fore
SplineSet
245 596 m 0,0,1
 191 596 191 596 167 571 c 128,-1,2
 143 546 143 546 143 500 c 2,3,-1
 143 478 l 2,4,5
 143 427 143 427 174.5 397 c 128,-1,6
 206 367 206 367 268 367 c 2,7,-1
 369 367 l 1,8,-1
 369 440 l 1,9,-1
 451 440 l 1,10,-1
 451 367 l 1,11,-1
 525 367 l 1,12,-1
 525 298 l 1,13,-1
 451 298 l 1,14,-1
 451 13 l 1,15,16
 419 6 419 6 395 1.5 c 128,-1,17
 371 -3 371 -3 350.5 -6 c 128,-1,18
 330 -9 330 -9 310.5 -10.5 c 128,-1,19
 291 -12 291 -12 268 -12 c 0,20,21
 202 -12 202 -12 157.5 0.5 c 128,-1,22
 113 13 113 13 85.5 36 c 128,-1,23
 58 59 58 59 46.5 91 c 128,-1,24
 35 123 35 123 35 162 c 2,25,-1
 35 184 l 2,26,27
 35 240 35 240 65 281.5 c 128,-1,28
 95 323 95 323 152 340 c 1,29,30
 102 362 102 362 81 399.5 c 128,-1,31
 60 437 60 437 60 485 c 2,32,-1
 60 507 l 2,33,34
 60 540 60 540 72 569.5 c 128,-1,35
 84 599 84 599 107 620.5 c 128,-1,36
 130 642 130 642 165 654.5 c 128,-1,37
 200 667 200 667 245 667 c 0,38,39
 273 667 273 667 301 664 c 128,-1,40
 329 661 329 661 363 656 c 1,41,-1
 361 585 l 1,42,43
 335 590 335 590 306 593 c 128,-1,44
 277 596 277 596 245 596 c 0,0,1
369 298 m 1,45,-1
 262 298 l 2,46,47
 189 298 189 298 154.5 268.5 c 128,-1,48
 120 239 120 239 120 188 c 2,49,-1
 120 161 l 2,50,51
 120 113 120 113 155.5 86.5 c 128,-1,52
 191 60 191 60 268 60 c 0,53,54
 294 60 294 60 316.5 63 c 128,-1,55
 339 66 339 66 369 73 c 1,56,-1
 369 298 l 1,45,-1
EndSplineSet
EndChar

StartChar: quotesingle
Encoding: 39 39 29
Width: 235
Flags: W
LayerCount: 2
Fore
SplineSet
75 683 m 1,0,-1
 160 683 l 1,1,-1
 160 429 l 1,2,-1
 75 429 l 1,3,-1
 75 683 l 1,0,-1
EndSplineSet
EndChar

StartChar: parenleft
Encoding: 40 40 30
Width: 520
Flags: W
LayerCount: 2
Fore
SplineSet
163 603 m 2,0,1
 163 658 163 658 169.5 693.5 c 128,-1,2
 176 729 176 729 195 750 c 128,-1,3
 214 771 214 771 247.5 779 c 128,-1,4
 281 787 281 787 334 787 c 1,5,-1
 334 715 l 1,6,7
 307 713 307 713 290 709.5 c 128,-1,8
 273 706 273 706 264 697.5 c 128,-1,9
 255 689 255 689 251.5 675.5 c 128,-1,10
 248 662 248 662 248 640 c 2,11,-1
 248 43 l 2,12,13
 248 16 248 16 250.5 -0.5 c 128,-1,14
 253 -17 253 -17 262 -27 c 128,-1,15
 271 -37 271 -37 288 -41.5 c 128,-1,16
 305 -46 305 -46 334 -47 c 1,17,-1
 334 -119 l 1,18,19
 281 -119 281 -119 247.5 -111 c 128,-1,20
 214 -103 214 -103 195 -82 c 128,-1,21
 176 -61 176 -61 169.5 -25.5 c 128,-1,22
 163 10 163 10 163 65 c 2,23,-1
 163 603 l 2,0,1
EndSplineSet
EndChar

StartChar: parenright
Encoding: 41 41 31
Width: 520
Flags: W
LayerCount: 2
Fore
SplineSet
356 65 m 2,0,1
 356 10 356 10 349 -25.5 c 128,-1,2
 342 -61 342 -61 323.5 -82 c 128,-1,3
 305 -103 305 -103 271.5 -111 c 128,-1,4
 238 -119 238 -119 185 -119 c 1,5,-1
 185 -47 l 1,6,7
 214 -46 214 -46 231 -41.5 c 128,-1,8
 248 -37 248 -37 257 -27 c 128,-1,9
 266 -17 266 -17 268.5 -0.5 c 128,-1,10
 271 16 271 16 271 43 c 2,11,-1
 271 640 l 2,12,13
 271 662 271 662 267.5 675.5 c 128,-1,14
 264 689 264 689 255 697.5 c 128,-1,15
 246 706 246 706 229 709.5 c 128,-1,16
 212 713 212 713 185 715 c 1,17,-1
 185 787 l 1,18,19
 238 787 238 787 271.5 779 c 128,-1,20
 305 771 305 771 323.5 750 c 128,-1,21
 342 729 342 729 349 693.5 c 128,-1,22
 356 658 356 658 356 603 c 2,23,-1
 356 65 l 2,0,1
EndSplineSet
EndChar

StartChar: asterisk
Encoding: 42 42 32
Width: 410
Flags: W
LayerCount: 2
Fore
SplineSet
229 583 m 1,0,-1
 332 627 l 1,1,-1
 355 561 l 1,2,-1
 244 536 l 1,3,-1
 318 452 l 1,4,-1
 261 411 l 1,5,-1
 204 507 l 1,6,-1
 147 410 l 1,7,-1
 91 452 l 1,8,-1
 165 537 l 1,9,-1
 55 561 l 1,10,-1
 78 627 l 1,11,-1
 180 584 l 1,12,-1
 170 695 l 1,13,-1
 239 695 l 1,14,-1
 229 583 l 1,0,-1
EndSplineSet
EndChar

StartChar: plus
Encoding: 43 43 33
Width: 520
Flags: W
LayerCount: 2
Fore
SplineSet
298 265 m 1,0,-1
 298 113 l 1,1,-1
 222 113 l 1,2,-1
 222 265 l 1,3,-1
 82 265 l 1,4,-1
 82 336 l 1,5,-1
 222 336 l 1,6,-1
 222 488 l 1,7,-1
 298 488 l 1,8,-1
 298 336 l 1,9,-1
 438 336 l 1,10,-1
 438 265 l 1,11,-1
 298 265 l 1,0,-1
EndSplineSet
EndChar

StartChar: comma
Encoding: 44 44 34
Width: 220
Flags: W
LayerCount: 2
Fore
SplineSet
165 32 m 2,0,1
 165 3 165 3 158 -19 c 2,2,-1
 115 -161 l 1,3,-1
 55 -161 l 1,4,-1
 91 -9 l 1,5,6
 56 -1 56 -1 56 34 c 2,7,-1
 56 63 l 2,8,9
 56 108 56 108 110 108 c 0,10,11
 165 108 165 108 165 63 c 2,12,-1
 165 32 l 2,0,1
EndSplineSet
EndChar

StartChar: hyphen
Encoding: 45 45 35
Width: 350
Flags: W
LayerCount: 2
Fore
SplineSet
65 263 m 1,0,-1
 65 328 l 1,1,-1
 285 328 l 1,2,-1
 285 263 l 1,3,-1
 65 263 l 1,0,-1
EndSplineSet
EndChar

StartChar: period
Encoding: 46 46 36
Width: 221
Flags: W
LayerCount: 2
Fore
SplineSet
166 33 m 2,0,1
 166 -12 166 -12 110 -12 c 0,2,3
 55 -12 55 -12 55 33 c 2,4,-1
 55 62 l 2,5,6
 55 108 55 108 110 108 c 0,7,8
 166 108 166 108 166 62 c 2,9,-1
 166 33 l 2,0,1
EndSplineSet
EndChar

StartChar: slash
Encoding: 47 47 37
Width: 520
Flags: W
LayerCount: 2
Fore
SplineSet
115 0 m 1,0,-1
 320 683 l 1,1,-1
 405 683 l 1,2,-1
 200 0 l 1,3,-1
 115 0 l 1,0,-1
EndSplineSet
EndChar

StartChar: zero
Encoding: 48 48 38
Width: 520
Flags: W
LayerCount: 2
Fore
SplineSet
445 193 m 2,0,1
 445 89 445 89 397 38.5 c 128,-1,2
 349 -12 349 -12 260 -12 c 256,3,4
 171 -12 171 -12 123 38.5 c 128,-1,5
 75 89 75 89 75 193 c 2,6,-1
 75 408 l 2,7,8
 75 512 75 512 123 562.5 c 128,-1,9
 171 613 171 613 260 613 c 256,10,11
 349 613 349 613 397 562.5 c 128,-1,12
 445 512 445 512 445 408 c 2,13,-1
 445 193 l 2,0,1
360 416 m 2,14,15
 360 482 360 482 333.5 511.5 c 128,-1,16
 307 541 307 541 260 541 c 0,17,18
 212 541 212 541 186 511.5 c 128,-1,19
 160 482 160 482 160 416 c 2,20,-1
 160 185 l 2,21,22
 160 119 160 119 186.5 89.5 c 128,-1,23
 213 60 213 60 260 60 c 256,24,25
 307 60 307 60 333.5 89.5 c 128,-1,26
 360 119 360 119 360 185 c 2,27,-1
 360 416 l 2,14,15
EndSplineSet
EndChar

StartChar: one
Encoding: 49 49 39
Width: 520
Flags: W
LayerCount: 2
Fore
SplineSet
109 0 m 1,0,-1
 109 73 l 1,1,-1
 237 73 l 1,2,-1
 237 519 l 1,3,-1
 235 519 l 1,4,-1
 102 462 l 1,5,-1
 85 535 l 1,6,-1
 247 601 l 1,7,-1
 322 601 l 1,8,-1
 322 73 l 1,9,-1
 434 73 l 1,10,-1
 434 0 l 1,11,-1
 109 0 l 1,0,-1
EndSplineSet
EndChar

StartChar: two
Encoding: 50 50 40
Width: 520
Flags: W
LayerCount: 2
Fore
SplineSet
236 541 m 0,0,1
 207 541 207 541 171.5 534.5 c 128,-1,2
 136 528 136 528 110 520 c 1,3,-1
 110 593 l 1,4,5
 143 602 143 602 176.5 607.5 c 128,-1,6
 210 613 210 613 236 613 c 0,7,8
 334 613 334 613 379.5 574 c 128,-1,9
 425 535 425 535 425 457 c 2,10,-1
 425 435 l 2,11,12
 425 414 425 414 422 394 c 128,-1,13
 419 374 419 374 410.5 352.5 c 128,-1,14
 402 331 402 331 385.5 305.5 c 128,-1,15
 369 280 369 280 342 248 c 2,16,-1
 197 73 l 1,17,-1
 422 73 l 1,18,-1
 422 0 l 1,19,-1
 95 0 l 1,20,-1
 95 65 l 1,21,-1
 295 318 l 2,22,23
 309 336 309 336 318 350 c 128,-1,24
 327 364 327 364 332 376.5 c 128,-1,25
 337 389 337 389 338.5 402.5 c 128,-1,26
 340 416 340 416 340 434 c 2,27,-1
 340 452 l 2,28,29
 340 500 340 500 315.5 520.5 c 128,-1,30
 291 541 291 541 236 541 c 0,0,1
EndSplineSet
EndChar

StartChar: three
Encoding: 51 51 41
Width: 520
Flags: W
LayerCount: 2
Fore
SplineSet
229 543 m 0,0,1
 200 543 200 543 164.5 538.5 c 128,-1,2
 129 534 129 534 103 529 c 1,3,-1
 103 600 l 1,4,5
 136 605 136 605 169.5 609 c 128,-1,6
 203 613 203 613 229 613 c 0,7,8
 315 613 315 613 359.5 572 c 128,-1,9
 404 531 404 531 404 457 c 2,10,-1
 404 447 l 2,11,12
 404 401 404 401 385 367 c 128,-1,13
 366 333 366 333 327 314 c 1,14,15
 369 297 369 297 393 259 c 128,-1,16
 417 221 417 221 417 173 c 2,17,-1
 417 163 l 2,18,19
 417 125 417 125 405.5 92.5 c 128,-1,20
 394 60 394 60 370.5 37 c 128,-1,21
 347 14 347 14 312.5 1 c 128,-1,22
 278 -12 278 -12 232 -12 c 0,23,24
 206 -12 206 -12 171 -8 c 128,-1,25
 136 -4 136 -4 103 1 c 1,26,-1
 103 72 l 1,27,28
 129 67 129 67 166 63 c 128,-1,29
 203 59 203 59 232 59 c 0,30,31
 280 59 280 59 306 85.5 c 128,-1,32
 332 112 332 112 332 158 c 2,33,-1
 332 174 l 2,34,35
 332 276 332 276 227 276 c 2,36,-1
 138 276 l 1,37,-1
 138 344 l 1,38,-1
 227 344 l 2,39,40
 275 344 275 344 297 367.5 c 128,-1,41
 319 391 319 391 319 443 c 2,42,-1
 319 462 l 2,43,44
 319 543 319 543 229 543 c 0,0,1
EndSplineSet
EndChar

StartChar: four
Encoding: 52 52 42
Width: 520
Flags: W
LayerCount: 2
Fore
SplineSet
265 601 m 1,0,-1
 139 199 l 1,1,-1
 313 199 l 1,2,-1
 313 401 l 1,3,-1
 395 401 l 1,4,-1
 395 199 l 1,5,-1
 469 199 l 1,6,-1
 469 129 l 1,7,-1
 395 129 l 1,8,-1
 395 0 l 1,9,-1
 312 0 l 1,10,-1
 312 129 l 1,11,-1
 73 129 l 1,12,-1
 51 174 l 1,13,-1
 188 601 l 1,14,-1
 265 601 l 1,0,-1
EndSplineSet
EndChar

StartChar: five
Encoding: 53 53 43
Width: 520
Flags: W
LayerCount: 2
Fore
SplineSet
438 176 m 2,0,1
 438 83 438 83 390 35.5 c 128,-1,2
 342 -12 342 -12 243 -12 c 0,3,4
 224 -12 224 -12 203.5 -10 c 128,-1,5
 183 -8 183 -8 163 -5 c 128,-1,6
 143 -2 143 -2 125 2 c 128,-1,7
 107 6 107 6 92 10 c 1,8,-1
 92 79 l 1,9,10
 105 76 105 76 125.5 72.5 c 128,-1,11
 146 69 146 69 167.5 66.5 c 128,-1,12
 189 64 189 64 208.5 62 c 128,-1,13
 228 60 228 60 241 60 c 0,14,15
 297 60 297 60 325 89.5 c 128,-1,16
 353 119 353 119 353 176 c 2,17,-1
 353 215 l 2,18,19
 353 266 353 266 333.5 288.5 c 128,-1,20
 314 311 314 311 279 311 c 0,21,22
 239 311 239 311 208.5 296 c 128,-1,23
 178 281 178 281 147 246 c 1,24,-1
 82 246 l 1,25,-1
 82 604 l 1,26,-1
 390 604 l 1,27,-1
 390 531 l 1,28,-1
 167 531 l 1,29,-1
 167 338 l 1,30,31
 223 382 223 382 300 382 c 0,32,33
 367 382 367 382 402.5 343 c 128,-1,34
 438 304 438 304 438 212 c 2,35,-1
 438 176 l 2,0,1
EndSplineSet
EndChar

StartChar: six
Encoding: 54 54 44
Width: 520
Flags: W
LayerCount: 2
Fore
SplineSet
75 362 m 2,0,1
 75 480 75 480 154 542 c 128,-1,2
 233 604 233 604 392 606 c 1,3,-1
 392 533 l 1,4,5
 266 531 266 531 213 491.5 c 128,-1,6
 160 452 160 452 160 378 c 2,7,-1
 160 322 l 1,8,9
 198 358 198 358 231 373.5 c 128,-1,10
 264 389 264 389 294 389 c 0,11,12
 364 389 364 389 404.5 346 c 128,-1,13
 445 303 445 303 445 212 c 2,14,-1
 445 173 l 2,15,16
 445 82 445 82 397.5 35 c 128,-1,17
 350 -12 350 -12 259 -12 c 256,18,19
 168 -12 168 -12 121.5 37.5 c 128,-1,20
 75 87 75 87 75 178 c 2,21,-1
 75 362 l 2,0,1
160 173 m 2,22,23
 160 60 160 60 259 60 c 0,24,25
 360 60 360 60 360 168 c 2,26,-1
 360 215 l 2,27,28
 360 266 360 266 338.5 290.5 c 128,-1,29
 317 315 317 315 279 315 c 0,30,31
 250 315 250 315 219.5 295.5 c 128,-1,32
 189 276 189 276 160 250 c 1,33,-1
 160 173 l 2,22,23
EndSplineSet
EndChar

StartChar: seven
Encoding: 55 55 45
Width: 520
Flags: W
LayerCount: 2
Fore
SplineSet
440 600 m 1,0,-1
 440 542 l 1,1,-1
 216 0 l 1,2,-1
 125 0 l 1,3,-1
 349 525 l 1,4,-1
 349 527 l 1,5,-1
 79 527 l 1,6,-1
 79 600 l 1,7,-1
 440 600 l 1,0,-1
EndSplineSet
EndChar

StartChar: eight
Encoding: 56 56 46
Width: 520
Flags: W
LayerCount: 2
Fore
SplineSet
455 163 m 2,0,1
 455 81 455 81 405.5 34.5 c 128,-1,2
 356 -12 356 -12 260 -12 c 0,3,4
 165 -12 165 -12 115 34 c 128,-1,5
 65 80 65 80 65 163 c 2,6,-1
 65 178 l 2,7,8
 65 282 65 282 154 321 c 1,9,10
 122 340 122 340 106.5 373 c 128,-1,11
 91 406 91 406 91 450 c 2,12,-1
 91 455 l 2,13,14
 91 531 91 531 136.5 572 c 128,-1,15
 182 613 182 613 260 613 c 256,16,17
 338 613 338 613 383.5 572.5 c 128,-1,18
 429 532 429 532 429 455 c 2,19,-1
 429 450 l 2,20,21
 429 406 429 406 413.5 373 c 128,-1,22
 398 340 398 340 366 321 c 1,23,24
 409 301 409 301 432 265.5 c 128,-1,25
 455 230 455 230 455 178 c 2,26,-1
 455 163 l 2,0,1
346 460 m 2,27,28
 346 505 346 505 324.5 526 c 128,-1,29
 303 547 303 547 260 547 c 0,30,31
 174 547 174 547 174 460 c 2,32,-1
 174 441 l 2,33,34
 174 394 174 394 193.5 373.5 c 128,-1,35
 213 353 213 353 260 353 c 0,36,37
 308 353 308 353 327 373.5 c 128,-1,38
 346 394 346 394 346 441 c 2,39,-1
 346 460 l 2,27,28
370 180 m 2,40,41
 370 232 370 232 340.5 259.5 c 128,-1,42
 311 287 311 287 260 287 c 0,43,44
 208 287 208 287 179 259 c 128,-1,45
 150 231 150 231 150 180 c 2,46,-1
 150 155 l 2,47,48
 150 112 150 112 178 85.5 c 128,-1,49
 206 59 206 59 260 59 c 256,50,51
 314 59 314 59 342 85.5 c 128,-1,52
 370 112 370 112 370 155 c 2,53,-1
 370 180 l 2,40,41
EndSplineSet
EndChar

StartChar: nine
Encoding: 57 57 47
Width: 520
Flags: W
LayerCount: 2
Fore
SplineSet
445 208 m 2,0,1
 445 92 445 92 394 40 c 128,-1,2
 343 -12 343 -12 241 -12 c 0,3,4
 224 -12 224 -12 205 -10 c 128,-1,5
 186 -8 186 -8 168 -5.5 c 128,-1,6
 150 -3 150 -3 135 -0.5 c 128,-1,7
 120 2 120 2 112 4 c 1,8,-1
 112 75 l 1,9,10
 124 73 124 73 141.5 70 c 128,-1,11
 159 67 159 67 178 64.5 c 128,-1,12
 197 62 197 62 213.5 60.5 c 128,-1,13
 230 59 230 59 241 59 c 0,14,15
 301 59 301 59 330.5 91.5 c 128,-1,16
 360 124 360 124 360 202 c 2,17,-1
 360 278 l 1,18,19
 290 211 290 211 224 211 c 0,20,21
 154 211 154 211 114.5 255 c 128,-1,22
 75 299 75 299 75 388 c 2,23,-1
 75 427 l 2,24,25
 75 517 75 517 121.5 564.5 c 128,-1,26
 168 612 168 612 261 612 c 0,27,28
 352 612 352 612 398.5 564 c 128,-1,29
 445 516 445 516 445 422 c 2,30,-1
 445 208 l 2,0,1
360 427 m 2,31,32
 360 540 360 540 261 540 c 0,33,34
 160 540 160 540 160 432 c 2,35,-1
 160 385 l 2,36,37
 160 335 160 335 181.5 310 c 128,-1,38
 203 285 203 285 241 285 c 0,39,40
 270 285 270 285 300.5 304.5 c 128,-1,41
 331 324 331 324 360 350 c 1,42,-1
 360 427 l 2,31,32
EndSplineSet
EndChar

StartChar: less
Encoding: 60 60 50
Width: 520
Flags: W
LayerCount: 2
Fore
SplineSet
80 259 m 1,0,-1
 80 334 l 1,1,-1
 440 494 l 1,2,-1
 440 411 l 1,3,-1
 164 297 l 1,4,-1
 440 182 l 1,5,-1
 440 99 l 1,6,-1
 80 259 l 1,0,-1
EndSplineSet
EndChar

StartChar: equal
Encoding: 61 61 51
Width: 520
Flags: W
LayerCount: 2
Fore
SplineSet
83 180 m 1,0,-1
 83 250 l 1,1,-1
 437 250 l 1,2,-1
 437 180 l 1,3,-1
 83 180 l 1,0,-1
83 351 m 1,4,-1
 83 421 l 1,5,-1
 437 421 l 1,6,-1
 437 351 l 1,7,-1
 83 351 l 1,4,-1
EndSplineSet
EndChar

StartChar: greater
Encoding: 62 62 52
Width: 520
Flags: W
LayerCount: 2
Fore
SplineSet
80 99 m 1,0,-1
 80 182 l 1,1,-1
 356 297 l 1,2,-1
 80 411 l 1,3,-1
 80 494 l 1,4,-1
 440 334 l 1,5,-1
 440 259 l 1,6,-1
 80 99 l 1,0,-1
EndSplineSet
EndChar

StartChar: question
Encoding: 63 63 53
Width: 395
Flags: W
LayerCount: 2
Fore
SplineSet
151 627 m 0,0,1
 122 627 122 627 86.5 621 c 128,-1,2
 51 615 51 615 25 609 c 1,3,-1
 25 679 l 1,4,5
 58 686 58 686 94 690.5 c 128,-1,6
 130 695 130 695 156 695 c 0,7,8
 256 695 256 695 298 658.5 c 128,-1,9
 340 622 340 622 340 557 c 2,10,-1
 340 532 l 2,11,12
 340 487 340 487 320 446.5 c 128,-1,13
 300 406 300 406 253 357 c 1,14,-1
 220 321 l 2,15,16
 212 313 212 313 207 305.5 c 128,-1,17
 202 298 202 298 199 290 c 128,-1,18
 196 282 196 282 194.5 271 c 128,-1,19
 193 260 193 260 193 245 c 2,20,-1
 193 200 l 1,21,-1
 112 200 l 1,22,-1
 112 232 l 2,23,24
 112 256 112 256 113.5 272.5 c 128,-1,25
 115 289 115 289 119 302 c 128,-1,26
 123 315 123 315 131 327 c 128,-1,27
 139 339 139 339 152 354 c 2,28,-1
 210 422 l 2,29,30
 224 438 224 438 232.5 451.5 c 128,-1,31
 241 465 241 465 246 477.5 c 128,-1,32
 251 490 251 490 253 503.5 c 128,-1,33
 255 517 255 517 255 534 c 2,34,-1
 255 556 l 2,35,36
 255 592 255 592 233.5 609.5 c 128,-1,37
 212 627 212 627 151 627 c 0,0,1
210 33 m 2,38,39
 210 -12 210 -12 154 -12 c 0,40,41
 99 -12 99 -12 99 33 c 2,42,-1
 99 62 l 2,43,44
 99 108 99 108 154 108 c 0,45,46
 210 108 210 108 210 62 c 2,47,-1
 210 33 l 2,38,39
EndSplineSet
EndChar

StartChar: at
Encoding: 64 64 54
Width: 960
Flags: W
LayerCount: 2
Fore
SplineSet
299 320 m 2,0,1
 310 402 310 402 352.5 445 c 128,-1,2
 395 488 395 488 462 488 c 0,3,4
 478 488 478 488 495 483 c 128,-1,5
 512 478 512 478 527 470 c 128,-1,6
 542 462 542 462 555.5 452.5 c 128,-1,7
 569 443 569 443 579 434 c 1,8,-1
 584 475 l 1,9,-1
 664 475 l 1,10,-1
 624 158 l 2,11,12
 623 153 623 153 622.5 146.5 c 128,-1,13
 622 140 622 140 622 138 c 0,14,15
 622 116 622 116 633.5 103 c 128,-1,16
 645 90 645 90 673 90 c 0,17,18
 699 90 699 90 722 103 c 128,-1,19
 745 116 745 116 762.5 140 c 128,-1,20
 780 164 780 164 790 196.5 c 128,-1,21
 800 229 800 229 800 268 c 2,22,-1
 800 318 l 2,23,24
 800 467 800 467 718 543 c 128,-1,25
 636 619 636 619 470 619 c 0,26,27
 323 619 323 619 241.5 534 c 128,-1,28
 160 449 160 449 160 288 c 2,29,-1
 160 188 l 2,30,31
 160 42 160 42 237.5 -33.5 c 128,-1,32
 315 -109 315 -109 470 -109 c 2,33,-1
 605 -109 l 1,34,-1
 605 -185 l 1,35,-1
 470 -185 l 2,36,37
 267 -185 267 -185 171 -89.5 c 128,-1,38
 75 6 75 6 75 188 c 2,39,-1
 75 288 l 2,40,41
 75 378 75 378 98.5 452.5 c 128,-1,42
 122 527 122 527 170.5 581 c 128,-1,43
 219 635 219 635 293.5 665 c 128,-1,44
 368 695 368 695 470 695 c 0,45,46
 682 695 682 695 783.5 599.5 c 128,-1,47
 885 504 885 504 885 318 c 2,48,-1
 885 268 l 2,49,50
 885 213 885 213 870.5 166.5 c 128,-1,51
 856 120 856 120 828.5 86.5 c 128,-1,52
 801 53 801 53 761.5 34 c 128,-1,53
 722 15 722 15 672 15 c 0,54,55
 615 15 615 15 583.5 39.5 c 128,-1,56
 552 64 552 64 546 109 c 1,57,58
 511 66 511 66 470.5 40.5 c 128,-1,59
 430 15 430 15 392 15 c 0,60,61
 336 15 336 15 307 48 c 128,-1,62
 278 81 278 81 278 143 c 0,63,64
 278 149 278 149 279 162.5 c 128,-1,65
 280 176 280 176 281 182 c 2,66,-1
 299 320 l 2,0,1
418 91 m 0,67,68
 447 91 447 91 480 114 c 128,-1,69
 513 137 513 137 542 182 c 1,70,-1
 564 363 l 1,71,72
 546 385 546 385 519.5 398.5 c 128,-1,73
 493 412 493 412 470 412 c 0,74,75
 436 412 436 412 412.5 387.5 c 128,-1,76
 389 363 389 363 382 308 c 2,77,-1
 367 193 l 2,78,79
 364 175 364 175 364 161 c 0,80,81
 364 123 364 123 378.5 107 c 128,-1,82
 393 91 393 91 418 91 c 0,67,68
EndSplineSet
EndChar

StartChar: A
Encoding: 65 65 55
Width: 536
Flags: W
LayerCount: 2
Fore
SplineSet
386 152 m 1,0,-1
 145 152 l 1,1,-1
 102 0 l 1,2,-1
 15 0 l 1,3,-1
 215 655 l 1,4,-1
 320 655 l 1,5,-1
 521 0 l 1,6,-1
 429 0 l 1,7,-1
 386 152 l 1,0,-1
166 228 m 1,8,-1
 364 228 l 1,9,-1
 266 577 l 1,10,-1
 166 228 l 1,8,-1
EndSplineSet
EndChar

StartChar: B
Encoding: 66 66 56
Width: 528
Flags: W
LayerCount: 2
Fore
SplineSet
75 663 m 1,0,1
 110 665 110 665 153.5 666 c 128,-1,2
 197 667 197 667 251 667 c 0,3,4
 359 667 359 667 412.5 622.5 c 128,-1,5
 466 578 466 578 466 507 c 2,6,-1
 466 485 l 2,7,8
 466 435 466 435 444 398 c 128,-1,9
 422 361 422 361 374 340 c 1,10,11
 430 328 430 328 461.5 289 c 128,-1,12
 493 250 493 250 493 191 c 2,13,-1
 493 169 l 2,14,15
 493 130 493 130 479 96.5 c 128,-1,16
 465 63 465 63 436.5 39 c 128,-1,17
 408 15 408 15 363.5 1.5 c 128,-1,18
 319 -12 319 -12 258 -12 c 2,19,-1
 217 -12 l 2,20,21
 199 -12 199 -12 179.5 -11 c 128,-1,22
 160 -10 160 -10 135.5 -9 c 128,-1,23
 111 -8 111 -8 75 -6 c 1,24,-1
 75 663 l 1,0,1
160 68 m 1,25,26
 180 66 180 66 193 65 c 128,-1,27
 206 64 206 64 216.5 63 c 128,-1,28
 227 62 227 62 236 62 c 2,29,-1
 258 62 l 2,30,31
 338 62 338 62 373 92.5 c 128,-1,32
 408 123 408 123 408 174 c 2,33,-1
 408 195 l 2,34,35
 408 245 408 245 374 271.5 c 128,-1,36
 340 298 340 298 264 298 c 2,37,-1
 160 298 l 1,38,-1
 160 68 l 1,25,26
160 367 m 1,39,-1
 258 367 l 2,40,41
 319 367 319 367 350 396 c 128,-1,42
 381 425 381 425 381 477 c 2,43,-1
 381 494 l 2,44,45
 381 542 381 542 348.5 568 c 128,-1,46
 316 594 316 594 238 594 c 0,47,48
 202 594 202 594 160 591 c 1,49,-1
 160 367 l 1,39,-1
EndSplineSet
EndChar

StartChar: C
Encoding: 67 67 57
Width: 476
Flags: W
LayerCount: 2
Fore
SplineSet
283 667 m 0,0,1
 317 667 317 667 352.5 661.5 c 128,-1,2
 388 656 388 656 421 651 c 1,3,-1
 419 576 l 1,4,5
 394 581 394 581 357 586.5 c 128,-1,6
 320 592 320 592 283 592 c 0,7,8
 214 592 214 592 184.5 564.5 c 128,-1,9
 155 537 155 537 155 471 c 2,10,-1
 155 185 l 2,11,12
 155 120 155 120 184.5 92.5 c 128,-1,13
 214 65 214 65 283 65 c 0,14,15
 320 65 320 65 357 70.5 c 128,-1,16
 394 76 394 76 419 81 c 1,17,-1
 421 4 l 1,18,19
 388 -1 388 -1 352.5 -6.5 c 128,-1,20
 317 -12 317 -12 283 -12 c 0,21,22
 224 -12 224 -12 183 0.5 c 128,-1,23
 142 13 142 13 117 38.5 c 128,-1,24
 92 64 92 64 81 102 c 128,-1,25
 70 140 70 140 70 190 c 2,26,-1
 70 465 l 2,27,28
 70 567 70 567 118 617 c 128,-1,29
 166 667 166 667 283 667 c 0,0,1
EndSplineSet
EndChar

StartChar: D
Encoding: 68 68 58
Width: 571
Flags: W
LayerCount: 2
Fore
SplineSet
160 67 m 1,0,1
 218 61 218 61 253 61 c 0,2,3
 328 61 328 61 374.5 104.5 c 128,-1,4
 421 148 421 148 421 234 c 2,5,-1
 421 411 l 2,6,7
 421 504 421 504 376 549.5 c 128,-1,8
 331 595 331 595 253 595 c 0,9,10
 229 595 229 595 206 594.5 c 128,-1,11
 183 594 183 594 160 593 c 1,12,-1
 160 67 l 1,0,1
75 663 m 1,13,14
 109 665 109 665 154.5 666 c 128,-1,15
 200 667 200 667 258 667 c 0,16,17
 377 667 377 667 441.5 600 c 128,-1,18
 506 533 506 533 506 405 c 2,19,-1
 506 241 l 2,20,21
 506 119 506 119 442.5 53.5 c 128,-1,22
 379 -12 379 -12 253 -12 c 0,23,24
 202 -12 202 -12 162 -10.5 c 128,-1,25
 122 -9 122 -9 75 -6 c 1,26,-1
 75 663 l 1,13,14
EndSplineSet
EndChar

StartChar: E
Encoding: 69 69 59
Width: 485
Flags: W
LayerCount: 2
Fore
SplineSet
75 0 m 1,0,-1
 75 655 l 1,1,-1
 420 655 l 1,2,-1
 420 578 l 1,3,-1
 160 578 l 1,4,-1
 160 371 l 1,5,-1
 400 371 l 1,6,-1
 400 295 l 1,7,-1
 160 295 l 1,8,-1
 160 77 l 1,9,-1
 420 77 l 1,10,-1
 420 0 l 1,11,-1
 75 0 l 1,0,-1
EndSplineSet
EndChar

StartChar: F
Encoding: 70 70 60
Width: 485
Flags: W
LayerCount: 2
Fore
SplineSet
160 578 m 1,0,-1
 160 371 l 1,1,-1
 356 371 l 1,2,-1
 356 295 l 1,3,-1
 160 295 l 1,4,-1
 160 0 l 1,5,-1
 75 0 l 1,6,-1
 75 655 l 1,7,-1
 420 655 l 1,8,-1
 420 578 l 1,9,-1
 160 578 l 1,0,-1
EndSplineSet
EndChar

StartChar: G
Encoding: 71 71 61
Width: 560
Flags: W
LayerCount: 2
Fore
SplineSet
283 -12 m 0,0,1
 224 -12 224 -12 183 0.5 c 128,-1,2
 142 13 142 13 117 38.5 c 128,-1,3
 92 64 92 64 81 102 c 128,-1,4
 70 140 70 140 70 190 c 2,5,-1
 70 465 l 2,6,7
 70 571 70 571 120 619 c 128,-1,8
 170 667 170 667 283 667 c 0,9,10
 303 667 303 667 326.5 665 c 128,-1,11
 350 663 350 663 373 659.5 c 128,-1,12
 396 656 396 656 417.5 652 c 128,-1,13
 439 648 439 648 456 645 c 1,14,-1
 454 572 l 1,15,16
 440 575 440 575 420 578.5 c 128,-1,17
 400 582 400 582 377 585.5 c 128,-1,18
 354 589 354 589 329.5 591.5 c 128,-1,19
 305 594 305 594 283 594 c 0,20,21
 213 594 213 594 184 566 c 128,-1,22
 155 538 155 538 155 474 c 2,23,-1
 155 184 l 2,24,25
 155 120 155 120 184 91.5 c 128,-1,26
 213 63 213 63 283 63 c 0,27,28
 308 63 308 63 338.5 67 c 128,-1,29
 369 71 369 71 400 77 c 1,30,-1
 400 298 l 1,31,-1
 275 298 l 1,32,-1
 275 378 l 1,33,-1
 485 378 l 1,34,-1
 485 25 l 1,35,36
 443 12 443 12 389.5 0 c 128,-1,37
 336 -12 336 -12 283 -12 c 0,0,1
EndSplineSet
EndChar

StartChar: H
Encoding: 72 72 62
Width: 580
Flags: W
LayerCount: 2
Fore
SplineSet
420 0 m 1,0,-1
 420 300 l 1,1,-1
 160 300 l 1,2,-1
 160 0 l 1,3,-1
 75 0 l 1,4,-1
 75 655 l 1,5,-1
 160 655 l 1,6,-1
 160 376 l 1,7,-1
 420 376 l 1,8,-1
 420 655 l 1,9,-1
 505 655 l 1,10,-1
 505 0 l 1,11,-1
 420 0 l 1,0,-1
EndSplineSet
EndChar

StartChar: I
Encoding: 73 73 63
Width: 235
Flags: W
LayerCount: 2
Fore
SplineSet
75 0 m 1,0,-1
 75 655 l 1,1,-1
 160 655 l 1,2,-1
 160 0 l 1,3,-1
 75 0 l 1,0,-1
EndSplineSet
EndChar

StartChar: J
Encoding: 74 74 64
Width: 312
Flags: W
LayerCount: 2
Fore
SplineSet
237 139 m 2,0,1
 237 62 237 62 201 25 c 128,-1,2
 165 -12 165 -12 84 -12 c 0,3,4
 67 -12 67 -12 47 -9.5 c 128,-1,5
 27 -7 27 -7 20 -5 c 1,6,-1
 20 66 l 1,7,8
 28 64 28 64 48.5 62.5 c 128,-1,9
 69 61 69 61 88 61 c 0,10,11
 119 61 119 61 135.5 75.5 c 128,-1,12
 152 90 152 90 152 124 c 2,13,-1
 152 655 l 1,14,-1
 237 655 l 1,15,-1
 237 139 l 2,0,1
EndSplineSet
EndChar

StartChar: K
Encoding: 75 75 65
Width: 550
Flags: W
LayerCount: 2
Fore
SplineSet
75 0 m 1,0,-1
 75 655 l 1,1,-1
 160 655 l 1,2,-1
 160 339 l 1,3,-1
 404 655 l 1,4,-1
 499 655 l 1,5,-1
 248 338 l 1,6,-1
 525 0 l 1,7,-1
 416 0 l 1,8,-1
 160 324 l 1,9,-1
 160 0 l 1,10,-1
 75 0 l 1,0,-1
EndSplineSet
EndChar

StartChar: L
Encoding: 76 76 66
Width: 445
Flags: W
LayerCount: 2
Fore
SplineSet
75 0 m 1,0,-1
 75 655 l 1,1,-1
 160 655 l 1,2,-1
 160 75 l 1,3,-1
 420 75 l 1,4,-1
 420 0 l 1,5,-1
 75 0 l 1,0,-1
EndSplineSet
EndChar

StartChar: M
Encoding: 77 77 67
Width: 699
Flags: W
LayerCount: 2
Fore
SplineSet
546 0 m 1,0,-1
 541 538 l 1,1,-1
 402 68 l 1,2,-1
 297 68 l 1,3,-1
 158 538 l 1,4,-1
 153 0 l 1,5,-1
 70 0 l 1,6,-1
 76 655 l 1,7,-1
 202 655 l 1,8,-1
 350 144 l 1,9,-1
 497 655 l 1,10,-1
 623 655 l 1,11,-1
 629 0 l 1,12,-1
 546 0 l 1,0,-1
EndSplineSet
EndChar

StartChar: N
Encoding: 78 78 68
Width: 582
Flags: W
LayerCount: 2
Fore
SplineSet
375 0 m 1,0,-1
 159 553 l 1,1,-1
 159 0 l 1,2,-1
 75 0 l 1,3,-1
 75 655 l 1,4,-1
 211 655 l 1,5,-1
 423 102 l 1,6,-1
 423 655 l 1,7,-1
 507 655 l 1,8,-1
 507 0 l 1,9,-1
 375 0 l 1,0,-1
EndSplineSet
EndChar

StartChar: O
Encoding: 79 79 69
Width: 576
Flags: W
LayerCount: 2
Fore
SplineSet
155 194 m 2,0,1
 155 130 155 130 188.5 96.5 c 128,-1,2
 222 63 222 63 288 63 c 256,3,4
 354 63 354 63 387.5 96.5 c 128,-1,5
 421 130 421 130 421 194 c 2,6,-1
 421 461 l 2,7,8
 421 524 421 524 388 558 c 128,-1,9
 355 592 355 592 288 592 c 256,10,11
 221 592 221 592 188 558.5 c 128,-1,12
 155 525 155 525 155 462 c 2,13,-1
 155 194 l 2,0,1
70 452 m 2,14,15
 70 501 70 501 82.5 541 c 128,-1,16
 95 581 95 581 121 609 c 128,-1,17
 147 637 147 637 188.5 652 c 128,-1,18
 230 667 230 667 288 667 c 256,19,20
 346 667 346 667 387.5 652 c 128,-1,21
 429 637 429 637 455 609 c 128,-1,22
 481 581 481 581 493.5 541 c 128,-1,23
 506 501 506 501 506 452 c 2,24,-1
 506 203 l 2,25,26
 506 153 506 153 493.5 113.5 c 128,-1,27
 481 74 481 74 455 46 c 128,-1,28
 429 18 429 18 387.5 3 c 128,-1,29
 346 -12 346 -12 288 -12 c 256,30,31
 230 -12 230 -12 188.5 3 c 128,-1,32
 147 18 147 18 121 46 c 128,-1,33
 95 74 95 74 82.5 113.5 c 128,-1,34
 70 153 70 153 70 203 c 2,35,-1
 70 452 l 2,14,15
EndSplineSet
EndChar

StartChar: P
Encoding: 80 80 70
Width: 504
Flags: W
LayerCount: 2
Fore
SplineSet
75 0 m 1,0,-1
 75 662 l 1,1,2
 113 664 113 664 153.5 665.5 c 128,-1,3
 194 667 194 667 248 667 c 0,4,5
 368 667 368 667 423.5 619 c 128,-1,6
 479 571 479 571 479 485 c 2,7,-1
 479 461 l 2,8,9
 479 370 479 370 425 318 c 128,-1,10
 371 266 371 266 256 266 c 0,11,12
 234 266 234 266 211.5 267.5 c 128,-1,13
 189 269 189 269 160 274 c 1,14,-1
 160 0 l 1,15,-1
 75 0 l 1,0,-1
160 347 m 1,16,17
 194 342 194 342 214 340.5 c 128,-1,18
 234 339 234 339 252 339 c 0,19,20
 394 339 394 339 394 465 c 2,21,-1
 394 482 l 2,22,23
 394 538 394 538 359 567 c 128,-1,24
 324 596 324 596 246 596 c 0,25,26
 213 596 213 596 194.5 595.5 c 128,-1,27
 176 595 176 595 160 594 c 1,28,-1
 160 347 l 1,16,17
EndSplineSet
EndChar

StartChar: Q
Encoding: 81 81 71
Width: 576
Flags: W
LayerCount: 2
Fore
SplineSet
70 452 m 2,0,1
 70 501 70 501 82.5 541 c 128,-1,2
 95 581 95 581 121 609 c 128,-1,3
 147 637 147 637 188.5 652 c 128,-1,4
 230 667 230 667 288 667 c 256,5,6
 346 667 346 667 387.5 652 c 128,-1,7
 429 637 429 637 455 609 c 128,-1,8
 481 581 481 581 493.5 541 c 128,-1,9
 506 501 506 501 506 452 c 2,10,-1
 506 205 l 2,11,12
 506 136 506 136 485 92 c 128,-1,13
 464 48 464 48 419 23 c 1,14,-1
 526 -6 l 1,15,-1
 528 -85 l 1,16,-1
 509 -85 l 1,17,-1
 313 -11 l 1,18,19
 307 -12 307 -12 301 -12 c 2,20,-1
 289 -12 l 2,21,22
 230 -12 230 -12 188.5 3 c 128,-1,23
 147 18 147 18 121 46 c 128,-1,24
 95 74 95 74 82.5 113.5 c 128,-1,25
 70 153 70 153 70 203 c 2,26,-1
 70 452 l 2,0,1
155 194 m 2,27,28
 155 130 155 130 188.5 96.5 c 128,-1,29
 222 63 222 63 288 63 c 0,30,31
 421 63 421 63 421 199 c 2,32,-1
 421 461 l 2,33,34
 421 524 421 524 388 558 c 128,-1,35
 355 592 355 592 288 592 c 256,36,37
 221 592 221 592 188 558.5 c 128,-1,38
 155 525 155 525 155 462 c 2,39,-1
 155 194 l 2,27,28
EndSplineSet
EndChar

StartChar: R
Encoding: 82 82 72
Width: 548
Flags: W
LayerCount: 2
Fore
SplineSet
248 667 m 0,0,1
 309 667 309 667 352.5 654.5 c 128,-1,2
 396 642 396 642 423.5 619.5 c 128,-1,3
 451 597 451 597 464 565 c 128,-1,4
 477 533 477 533 477 493 c 2,5,-1
 477 467 l 2,6,7
 477 440 477 440 468.5 414 c 128,-1,8
 460 388 460 388 444.5 365 c 128,-1,9
 429 342 429 342 406.5 324 c 128,-1,10
 384 306 384 306 356 296 c 1,11,-1
 523 0 l 1,12,-1
 428 0 l 1,13,-1
 270 280 l 1,14,-1
 208 280 l 2,15,16
 187 280 187 280 160 282 c 1,17,-1
 160 0 l 1,18,-1
 75 0 l 1,19,-1
 75 663 l 1,20,21
 117 665 117 665 161 666 c 128,-1,22
 205 667 205 667 248 667 c 0,0,1
246 596 m 0,23,24
 229 596 229 596 204.5 595.5 c 128,-1,25
 180 595 180 595 160 594 c 1,26,-1
 160 358 l 1,27,28
 194 356 194 356 213 355 c 128,-1,29
 232 354 232 354 249 354 c 0,30,31
 326 354 326 354 359 384.5 c 128,-1,32
 392 415 392 415 392 469 c 2,33,-1
 392 488 l 2,34,35
 392 542 392 542 358.5 569 c 128,-1,36
 325 596 325 596 246 596 c 0,23,24
EndSplineSet
EndChar

StartChar: S
Encoding: 83 83 73
Width: 456
Flags: W
LayerCount: 2
Fore
SplineSet
304 356 m 2,0,1
 337 345 337 345 360.5 330.5 c 128,-1,2
 384 316 384 316 398.5 295.5 c 128,-1,3
 413 275 413 275 419.5 248 c 128,-1,4
 426 221 426 221 426 184 c 2,5,-1
 426 165 l 2,6,7
 426 122 426 122 414.5 89 c 128,-1,8
 403 56 403 56 376.5 33.5 c 128,-1,9
 350 11 350 11 308 -0.5 c 128,-1,10
 266 -12 266 -12 206 -12 c 0,11,12
 182 -12 182 -12 143 -7 c 128,-1,13
 104 -2 104 -2 60 8 c 1,14,-1
 62 85 l 1,15,16
 103 75 103 75 140.5 70 c 128,-1,17
 178 65 178 65 204 65 c 0,18,19
 281 65 281 65 311 88.5 c 128,-1,20
 341 112 341 112 341 158 c 2,21,-1
 341 191 l 2,22,23
 341 226 341 226 326 244.5 c 128,-1,24
 311 263 311 263 271 276 c 2,25,-1
 168 310 l 2,26,27
 133 321 133 321 109.5 335 c 128,-1,28
 86 349 86 349 72 369 c 128,-1,29
 58 389 58 389 51.5 416 c 128,-1,30
 45 443 45 443 45 480 c 2,31,-1
 45 491 l 2,32,33
 45 576 45 576 90.5 621.5 c 128,-1,34
 136 667 136 667 240 667 c 0,35,36
 266 667 266 667 304.5 662.5 c 128,-1,37
 343 658 343 658 380 651 c 1,38,-1
 378 576 l 1,39,40
 343 583 343 583 306.5 587.5 c 128,-1,41
 270 592 270 592 240 592 c 0,42,43
 180 592 180 592 155 568.5 c 128,-1,44
 130 545 130 545 130 499 c 2,45,-1
 130 473 l 2,46,47
 130 455 130 455 133 442.5 c 128,-1,48
 136 430 136 430 145 420 c 128,-1,49
 154 410 154 410 170 402.5 c 128,-1,50
 186 395 186 395 211 387 c 2,51,-1
 304 356 l 2,0,1
EndSplineSet
EndChar

StartChar: T
Encoding: 84 84 74
Width: 515
Flags: W
LayerCount: 2
Fore
SplineSet
25 578 m 1,0,-1
 25 655 l 1,1,-1
 490 655 l 1,2,-1
 490 578 l 1,3,-1
 300 578 l 1,4,-1
 300 0 l 1,5,-1
 215 0 l 1,6,-1
 215 578 l 1,7,-1
 25 578 l 1,0,-1
EndSplineSet
EndChar

StartChar: U
Encoding: 85 85 75
Width: 576
Flags: W
LayerCount: 2
Fore
SplineSet
501 655 m 1,0,-1
 501 207 l 2,1,2
 501 101 501 101 448 44.5 c 128,-1,3
 395 -12 395 -12 288 -12 c 0,4,5
 184 -12 184 -12 129.5 42 c 128,-1,6
 75 96 75 96 75 205 c 2,7,-1
 75 655 l 1,8,-1
 160 655 l 1,9,-1
 160 194 l 2,10,11
 160 128 160 128 193.5 95.5 c 128,-1,12
 227 63 227 63 288 63 c 256,13,14
 349 63 349 63 382.5 95.5 c 128,-1,15
 416 128 416 128 416 194 c 2,16,-1
 416 655 l 1,17,-1
 501 655 l 1,0,-1
EndSplineSet
EndChar

StartChar: V
Encoding: 86 86 76
Width: 530
Flags: W
LayerCount: 2
Fore
SplineSet
321 0 m 1,0,-1
 209 0 l 1,1,-1
 15 655 l 1,2,-1
 105 655 l 1,3,-1
 265 82 l 1,4,-1
 425 655 l 1,5,-1
 515 655 l 1,6,-1
 321 0 l 1,0,-1
EndSplineSet
EndChar

StartChar: W
Encoding: 87 87 77
Width: 848
Flags: W
LayerCount: 2
Fore
SplineSet
674 0 m 1,0,-1
 560 0 l 1,1,-1
 424 558 l 1,2,-1
 289 0 l 1,3,-1
 175 0 l 1,4,-1
 25 655 l 1,5,-1
 115 655 l 1,6,-1
 235 93 l 1,7,-1
 366 655 l 1,8,-1
 482 655 l 1,9,-1
 614 93 l 1,10,-1
 733 655 l 1,11,-1
 823 655 l 1,12,-1
 674 0 l 1,0,-1
EndSplineSet
EndChar

StartChar: X
Encoding: 88 88 78
Width: 523
Flags: W
LayerCount: 2
Fore
SplineSet
113 0 m 1,0,-1
 15 0 l 1,1,-1
 207 338 l 1,2,-1
 27 655 l 1,3,-1
 129 655 l 1,4,-1
 266 405 l 1,5,-1
 403 655 l 1,6,-1
 497 655 l 1,7,-1
 319 336 l 1,8,-1
 508 0 l 1,9,-1
 405 0 l 1,10,-1
 259 268 l 1,11,-1
 113 0 l 1,0,-1
EndSplineSet
EndChar

StartChar: Y
Encoding: 89 89 79
Width: 495
Flags: W
LayerCount: 2
Fore
SplineSet
290 225 m 1,0,-1
 290 0 l 1,1,-1
 205 0 l 1,2,-1
 205 225 l 1,3,-1
 15 655 l 1,4,-1
 112 655 l 1,5,-1
 248 315 l 1,6,-1
 385 655 l 1,7,-1
 480 655 l 1,8,-1
 290 225 l 1,0,-1
EndSplineSet
EndChar

StartChar: Z
Encoding: 90 90 80
Width: 495
Flags: W
LayerCount: 2
Fore
SplineSet
45 0 m 1,0,-1
 45 67 l 1,1,-1
 341 578 l 1,2,-1
 51 578 l 1,3,-1
 51 655 l 1,4,-1
 440 655 l 1,5,-1
 440 588 l 1,6,-1
 144 77 l 1,7,-1
 440 77 l 1,8,-1
 440 0 l 1,9,-1
 45 0 l 1,0,-1
EndSplineSet
EndChar

StartChar: bracketleft
Encoding: 91 91 81
Width: 520
Flags: W
LayerCount: 2
Fore
SplineSet
157 -116 m 1,0,-1
 157 784 l 1,1,-1
 362 784 l 1,2,-1
 362 714 l 1,3,-1
 242 714 l 1,4,-1
 242 -46 l 1,5,-1
 362 -46 l 1,6,-1
 362 -116 l 1,7,-1
 157 -116 l 1,0,-1
EndSplineSet
EndChar

StartChar: backslash
Encoding: 92 92 82
Width: 520
Flags: W
LayerCount: 2
Fore
SplineSet
320 0 m 1,0,-1
 115 683 l 1,1,-1
 200 683 l 1,2,-1
 405 0 l 1,3,-1
 320 0 l 1,0,-1
EndSplineSet
EndChar

StartChar: bracketright
Encoding: 93 93 83
Width: 520
Flags: W
LayerCount: 2
Fore
SplineSet
157 -116 m 1,0,-1
 157 -46 l 1,1,-1
 277 -46 l 1,2,-1
 277 714 l 1,3,-1
 157 714 l 1,4,-1
 157 784 l 1,5,-1
 362 784 l 1,6,-1
 362 -116 l 1,7,-1
 157 -116 l 1,0,-1
EndSplineSet
EndChar

StartChar: asciicircum
Encoding: 94 94 84
Width: 495
Flags: W
LayerCount: 2
Fore
SplineSet
347 403 m 1,0,-1
 247 604 l 1,1,-1
 148 403 l 1,2,-1
 65 403 l 1,3,-1
 210 683 l 1,4,-1
 285 683 l 1,5,-1
 430 403 l 1,6,-1
 347 403 l 1,0,-1
EndSplineSet
EndChar

StartChar: underscore
Encoding: 95 95 85
Width: 610
Flags: W
LayerCount: 2
Fore
SplineSet
65 -185 m 1,0,-1
 65 -120 l 1,1,-1
 545 -120 l 1,2,-1
 545 -185 l 1,3,-1
 65 -185 l 1,0,-1
EndSplineSet
EndChar

StartChar: grave
Encoding: 96 96 86
Width: 385
Flags: W
LayerCount: 2
Fore
SplineSet
107 685 m 1,0,-1
 192 685 l 1,1,-1
 268 546 l 1,2,-1
 202 546 l 1,3,-1
 107 685 l 1,0,-1
EndSplineSet
EndChar

StartChar: a
Encoding: 97 97 87
Width: 469
Flags: W
LayerCount: 2
Fore
SplineSet
394 0 m 1,0,-1
 313 0 l 1,1,-1
 313 78 l 1,2,3
 254 -12 254 -12 182 -12 c 0,4,5
 125 -12 125 -12 90 27.5 c 128,-1,6
 55 67 55 67 55 137 c 2,7,-1
 55 165 l 2,8,9
 55 195 55 195 65.5 221 c 128,-1,10
 76 247 76 247 95.5 265.5 c 128,-1,11
 115 284 115 284 143 295 c 128,-1,12
 171 306 171 306 206 306 c 0,13,14
 228 306 228 306 257 302 c 128,-1,15
 286 298 286 298 309 293 c 1,16,-1
 309 346 l 2,17,18
 309 391 309 391 289.5 409 c 128,-1,19
 270 427 270 427 229 427 c 0,20,21
 214 427 214 427 196 425.5 c 128,-1,22
 178 424 178 424 160 421.5 c 128,-1,23
 142 419 142 419 124.5 416.5 c 128,-1,24
 107 414 107 414 94 412 c 1,25,-1
 94 485 l 1,26,27
 127 490 127 490 165 495 c 128,-1,28
 203 500 203 500 229 500 c 0,29,30
 315 500 315 500 354.5 462 c 128,-1,31
 394 424 394 424 394 339 c 2,32,-1
 394 0 l 1,0,-1
201 64 m 256,33,34
 227 64 227 64 256 87 c 128,-1,35
 285 110 285 110 309 154 c 1,36,-1
 309 231 l 1,37,38
 289 235 289 235 266 236.5 c 128,-1,39
 243 238 243 238 227 238 c 0,40,41
 185 238 185 238 163 215.5 c 128,-1,42
 141 193 141 193 141 154 c 2,43,-1
 141 143 l 2,44,45
 141 105 141 105 158 84.5 c 128,-1,46
 175 64 175 64 201 64 c 256,33,34
EndSplineSet
EndChar

StartChar: b
Encoding: 98 98 88
Width: 491
Flags: W
LayerCount: 2
Fore
SplineSet
160 423 m 1,0,1
 186 460 186 460 219.5 480 c 128,-1,2
 253 500 253 500 291 500 c 0,3,4
 353 500 353 500 387 457.5 c 128,-1,5
 421 415 421 415 421 330 c 2,6,-1
 421 172 l 2,7,8
 421 81 421 81 379 34.5 c 128,-1,9
 337 -12 337 -12 245 -12 c 0,10,11
 155 -12 155 -12 115 33.5 c 128,-1,12
 75 79 75 79 75 170 c 2,13,-1
 75 683 l 1,14,-1
 160 683 l 1,15,-1
 160 423 l 1,0,1
271 424 m 256,16,17
 242 424 242 424 212 402 c 128,-1,18
 182 380 182 380 160 342 c 1,19,-1
 160 160 l 2,20,21
 160 110 160 110 183 84.5 c 128,-1,22
 206 59 206 59 245 59 c 0,23,24
 336 59 336 59 336 162 c 2,25,-1
 336 318 l 2,26,27
 336 378 336 378 318 401 c 128,-1,28
 300 424 300 424 271 424 c 256,16,17
EndSplineSet
EndChar

StartChar: c
Encoding: 99 99 89
Width: 404
Flags: W
LayerCount: 2
Fore
SplineSet
251 -12 m 0,0,1
 157 -12 157 -12 113.5 34.5 c 128,-1,2
 70 81 70 81 70 170 c 2,3,-1
 70 318 l 2,4,5
 70 406 70 406 113.5 453 c 128,-1,6
 157 500 157 500 251 500 c 0,7,8
 277 500 277 500 296.5 497.5 c 128,-1,9
 316 495 316 495 349 490 c 1,10,-1
 347 415 l 1,11,12
 321 420 321 420 300.5 422.5 c 128,-1,13
 280 425 280 425 251 425 c 0,14,15
 203 425 203 425 179 399 c 128,-1,16
 155 373 155 373 155 325 c 2,17,-1
 155 164 l 2,18,19
 155 113 155 113 180.5 88 c 128,-1,20
 206 63 206 63 251 63 c 0,21,22
 280 63 280 63 300.5 65.5 c 128,-1,23
 321 68 321 68 347 73 c 1,24,-1
 349 -2 l 1,25,26
 316 -7 316 -7 296.5 -9.5 c 128,-1,27
 277 -12 277 -12 251 -12 c 0,0,1
EndSplineSet
EndChar

StartChar: d
Encoding: 100 100 90
Width: 491
Flags: W
LayerCount: 2
Fore
SplineSet
70 333 m 2,0,1
 70 411 70 411 106 455.5 c 128,-1,2
 142 500 142 500 211 500 c 0,3,4
 243 500 243 500 275.5 483.5 c 128,-1,5
 308 467 308 467 331 450 c 1,6,-1
 331 683 l 1,7,-1
 416 683 l 1,8,-1
 416 0 l 1,9,-1
 335 0 l 1,10,-1
 335 79 l 1,11,12
 306 34 306 34 271.5 11 c 128,-1,13
 237 -12 237 -12 198 -12 c 0,14,15
 136 -12 136 -12 103 30 c 128,-1,16
 70 72 70 72 70 155 c 2,17,-1
 70 333 l 2,0,1
218 64 m 0,18,19
 247 64 247 64 277 87 c 128,-1,20
 307 110 307 110 331 154 c 1,21,-1
 331 374 l 1,22,23
 310 396 310 396 281.5 410 c 128,-1,24
 253 424 253 424 230 424 c 0,25,26
 195 424 195 424 175 399.5 c 128,-1,27
 155 375 155 375 155 321 c 2,28,-1
 155 166 l 2,29,30
 155 109 155 109 172.5 86.5 c 128,-1,31
 190 64 190 64 218 64 c 0,18,19
EndSplineSet
EndChar

StartChar: e
Encoding: 101 101 91
Width: 467
Flags: W
LayerCount: 2
Fore
SplineSet
70 321 m 2,0,1
 70 408 70 408 111.5 454 c 128,-1,2
 153 500 153 500 240 500 c 0,3,4
 325 500 325 500 368.5 454.5 c 128,-1,5
 412 409 412 409 412 321 c 2,6,-1
 412 218 l 1,7,-1
 155 218 l 1,8,-1
 155 159 l 2,9,10
 155 108 155 108 179 85.5 c 128,-1,11
 203 63 203 63 256 63 c 0,12,13
 272 63 272 63 291 65 c 128,-1,14
 310 67 310 67 329.5 69.5 c 128,-1,15
 349 72 349 72 366.5 75 c 128,-1,16
 384 78 384 78 397 81 c 1,17,-1
 393 6 l 1,18,19
 360 0 360 0 322.5 -6 c 128,-1,20
 285 -12 285 -12 256 -12 c 0,21,22
 155 -12 155 -12 112.5 31.5 c 128,-1,23
 70 75 70 75 70 164 c 2,24,-1
 70 321 l 2,0,1
155 286 m 1,25,-1
 327 286 l 1,26,-1
 327 331 l 2,27,28
 327 381 327 381 303 405 c 128,-1,29
 279 429 279 429 240 429 c 0,30,31
 202 429 202 429 178.5 405 c 128,-1,32
 155 381 155 381 155 334 c 2,33,-1
 155 286 l 1,25,-1
EndSplineSet
EndChar

StartChar: f
Encoding: 102 102 92
Width: 333
Flags: W
LayerCount: 2
Fore
SplineSet
105 539 m 1,0,1
 106 618 106 618 144.5 656.5 c 128,-1,2
 183 695 183 695 255 695 c 0,3,4
 273 695 273 695 290.5 692.5 c 128,-1,5
 308 690 308 690 318 688 c 1,6,-1
 318 620 l 1,7,8
 304 622 304 622 289 623.5 c 128,-1,9
 274 625 274 625 256 625 c 0,10,11
 227 625 227 625 208.5 606.5 c 128,-1,12
 190 588 190 588 190 552 c 2,13,-1
 190 488 l 1,14,-1
 280 488 l 1,15,-1
 280 418 l 1,16,-1
 190 418 l 1,17,-1
 190 0 l 1,18,-1
 105 0 l 1,19,-1
 105 418 l 1,20,-1
 35 418 l 1,21,-1
 35 488 l 1,22,-1
 105 488 l 1,23,-1
 105 539 l 1,0,1
EndSplineSet
EndChar

StartChar: g
Encoding: 103 103 93
Width: 486
Flags: W
LayerCount: 2
Fore
SplineSet
66 -102 m 1,0,1
 98 -113 98 -113 139.5 -119.5 c 128,-1,2
 181 -126 181 -126 215 -126 c 0,3,4
 254 -126 254 -126 278 -122.5 c 128,-1,5
 302 -119 302 -119 315 -111.5 c 128,-1,6
 328 -104 328 -104 332 -91.5 c 128,-1,7
 336 -79 336 -79 336 -60 c 2,8,-1
 336 -51 l 2,9,10
 336 -4 336 -4 288 -1 c 2,11,-1
 138 9 l 2,12,13
 90 12 90 12 65 36.5 c 128,-1,14
 40 61 40 61 40 101 c 2,15,-1
 40 121 l 2,16,17
 40 167 40 167 85 201 c 1,18,19
 68 221 68 221 60.5 250.5 c 128,-1,20
 53 280 53 280 53 322 c 2,21,-1
 53 344 l 2,22,23
 53 413 53 413 95.5 456.5 c 128,-1,24
 138 500 138 500 225 500 c 0,25,26
 248 500 248 500 268 496.5 c 128,-1,27
 288 493 288 493 305 487 c 1,28,-1
 461 489 l 1,29,-1
 461 414 l 1,30,-1
 376 417 l 1,31,32
 387 401 387 401 391.5 381 c 128,-1,33
 396 361 396 361 396 341 c 2,34,-1
 396 319 l 2,35,36
 396 284 396 284 385 254 c 128,-1,37
 374 224 374 224 352 202.5 c 128,-1,38
 330 181 330 181 298.5 169 c 128,-1,39
 267 157 267 157 225 157 c 0,40,41
 173 157 173 157 140 167 c 1,42,43
 118 148 118 148 118 127 c 2,44,-1
 118 121 l 2,45,46
 118 107 118 107 128 98 c 128,-1,47
 138 89 138 89 167 87 c 2,48,-1
 316 76 l 2,49,50
 362 72 362 72 390.5 42 c 128,-1,51
 419 12 419 12 419 -35 c 2,52,-1
 419 -72 l 2,53,54
 419 -102 419 -102 410.5 -125.5 c 128,-1,55
 402 -149 402 -149 379.5 -164.5 c 128,-1,56
 357 -180 357 -180 317.5 -188.5 c 128,-1,57
 278 -197 278 -197 215 -197 c 0,58,59
 186 -197 186 -197 145.5 -192 c 128,-1,60
 105 -187 105 -187 69 -179 c 1,61,-1
 66 -102 l 1,0,1
138 313 m 2,62,63
 138 286 138 286 141.5 269.5 c 128,-1,64
 145 253 145 253 154 244 c 128,-1,65
 163 235 163 235 178.5 231.5 c 128,-1,66
 194 228 194 228 219 228 c 0,67,68
 266 228 266 228 288.5 250 c 128,-1,69
 311 272 311 272 311 313 c 2,70,-1
 311 343 l 2,71,72
 311 366 311 366 307.5 384 c 128,-1,73
 304 402 304 402 299 416 c 1,74,75
 288 421 288 421 267.5 425 c 128,-1,76
 247 429 247 429 225 429 c 0,77,78
 183 429 183 429 160.5 408 c 128,-1,79
 138 387 138 387 138 346 c 2,80,-1
 138 313 l 2,62,63
EndSplineSet
EndChar

StartChar: h
Encoding: 104 104 94
Width: 491
Flags: W
LayerCount: 2
Fore
SplineSet
75 0 m 1,0,-1
 75 683 l 1,1,-1
 160 683 l 1,2,-1
 160 423 l 1,3,4
 186 460 186 460 218 480 c 128,-1,5
 250 500 250 500 288 500 c 0,6,7
 352 500 352 500 386.5 457 c 128,-1,8
 421 414 421 414 421 333 c 2,9,-1
 421 0 l 1,10,-1
 336 0 l 1,11,-1
 336 321 l 2,12,13
 336 376 336 376 318 398.5 c 128,-1,14
 300 421 300 421 271 421 c 256,15,16
 242 421 242 421 212 399 c 128,-1,17
 182 377 182 377 160 339 c 1,18,-1
 160 0 l 1,19,-1
 75 0 l 1,0,-1
EndSplineSet
EndChar

StartChar: i
Encoding: 105 105 95
Width: 245
Flags: W
LayerCount: 2
Fore
SplineSet
80 0 m 1,0,-1
 80 488 l 1,1,-1
 165 488 l 1,2,-1
 165 0 l 1,3,-1
 80 0 l 1,0,-1
178 620 m 2,4,5
 178 575 178 575 122 575 c 0,6,7
 67 575 67 575 67 620 c 2,8,-1
 67 649 l 2,9,10
 67 695 67 695 122 695 c 0,11,12
 178 695 178 695 178 649 c 2,13,-1
 178 620 l 2,4,5
EndSplineSet
EndChar

StartChar: j
Encoding: 106 106 96
Width: 235
Flags: W
LayerCount: 2
Fore
SplineSet
75 488 m 1,0,-1
 160 488 l 1,1,-1
 160 -48 l 2,2,3
 160 -123 160 -123 123.5 -160 c 128,-1,4
 87 -197 87 -197 7 -197 c 0,5,6
 -10 -197 -10 -197 -28 -195 c 128,-1,7
 -46 -193 -46 -193 -53 -191 c 1,8,-1
 -53 -120 l 1,9,10
 -45 -121 -45 -121 -26.5 -122.5 c 128,-1,11
 -8 -124 -8 -124 11 -124 c 0,12,13
 75 -124 75 -124 75 -53 c 2,14,-1
 75 488 l 1,0,-1
173 620 m 2,15,16
 173 575 173 575 117 575 c 0,17,18
 62 575 62 575 62 620 c 2,19,-1
 62 649 l 2,20,21
 62 695 62 695 117 695 c 0,22,23
 173 695 173 695 173 649 c 2,24,-1
 173 620 l 2,15,16
EndSplineSet
EndChar

StartChar: k
Encoding: 107 107 97
Width: 452
Flags: W
LayerCount: 2
Fore
SplineSet
75 0 m 1,0,-1
 75 683 l 1,1,-1
 160 683 l 1,2,-1
 160 274 l 1,3,-1
 320 488 l 1,4,-1
 415 488 l 1,5,-1
 249 274 l 1,6,-1
 427 0 l 1,7,-1
 325 0 l 1,8,-1
 160 262 l 1,9,-1
 160 0 l 1,10,-1
 75 0 l 1,0,-1
EndSplineSet
EndChar

StartChar: l
Encoding: 108 108 98
Width: 235
Flags: W
LayerCount: 2
Fore
SplineSet
75 0 m 1,0,-1
 75 683 l 1,1,-1
 160 683 l 1,2,-1
 160 0 l 1,3,-1
 75 0 l 1,0,-1
EndSplineSet
EndChar

StartChar: m
Encoding: 109 109 99
Width: 742
Flags: W
LayerCount: 2
Fore
SplineSet
75 0 m 1,0,-1
 75 488 l 1,1,-1
 155 488 l 1,2,-1
 155 415 l 1,3,4
 181 456 181 456 214.5 478 c 128,-1,5
 248 500 248 500 286 500 c 0,6,7
 378 500 378 500 406 408 c 1,8,9
 433 453 433 453 467.5 476.5 c 128,-1,10
 502 500 502 500 542 500 c 0,11,12
 605 500 605 500 638.5 457 c 128,-1,13
 672 414 672 414 672 333 c 2,14,-1
 672 0 l 1,15,-1
 587 0 l 1,16,-1
 587 321 l 2,17,18
 587 375 587 375 570 398 c 128,-1,19
 553 421 553 421 525 421 c 256,20,21
 497 421 497 421 467.5 399 c 128,-1,22
 438 377 438 377 416 339 c 1,23,-1
 416 0 l 1,24,-1
 331 0 l 1,25,-1
 331 321 l 2,26,27
 331 375 331 375 314 398 c 128,-1,28
 297 421 297 421 269 421 c 256,29,30
 241 421 241 421 211.5 399 c 128,-1,31
 182 377 182 377 160 339 c 1,32,-1
 160 0 l 1,33,-1
 75 0 l 1,0,-1
EndSplineSet
EndChar

StartChar: n
Encoding: 110 110 100
Width: 491
Flags: W
LayerCount: 2
Fore
SplineSet
75 0 m 1,0,-1
 75 488 l 1,1,-1
 155 488 l 1,2,-1
 155 415 l 1,3,4
 181 456 181 456 215 478 c 128,-1,5
 249 500 249 500 288 500 c 0,6,7
 352 500 352 500 386.5 457 c 128,-1,8
 421 414 421 414 421 333 c 2,9,-1
 421 0 l 1,10,-1
 336 0 l 1,11,-1
 336 321 l 2,12,13
 336 375 336 375 318 398 c 128,-1,14
 300 421 300 421 271 421 c 256,15,16
 242 421 242 421 212 399 c 128,-1,17
 182 377 182 377 160 339 c 1,18,-1
 160 0 l 1,19,-1
 75 0 l 1,0,-1
EndSplineSet
EndChar

StartChar: o
Encoding: 111 111 101
Width: 492
Flags: W
LayerCount: 2
Fore
SplineSet
337 326 m 2,0,1
 337 377 337 377 313 403 c 128,-1,2
 289 429 289 429 246 429 c 256,3,4
 203 429 203 429 179 402.5 c 128,-1,5
 155 376 155 376 155 325 c 2,6,-1
 155 163 l 2,7,8
 155 112 155 112 179 85.5 c 128,-1,9
 203 59 203 59 246 59 c 256,10,11
 289 59 289 59 313 85.5 c 128,-1,12
 337 112 337 112 337 163 c 2,13,-1
 337 326 l 2,0,1
422 170 m 2,14,15
 422 85 422 85 380 36.5 c 128,-1,16
 338 -12 338 -12 246 -12 c 256,17,18
 154 -12 154 -12 112 36.5 c 128,-1,19
 70 85 70 85 70 170 c 2,20,-1
 70 318 l 2,21,22
 70 403 70 403 112 451.5 c 128,-1,23
 154 500 154 500 246 500 c 256,24,25
 338 500 338 500 380 451.5 c 128,-1,26
 422 403 422 403 422 318 c 2,27,-1
 422 170 l 2,14,15
EndSplineSet
EndChar

StartChar: p
Encoding: 112 112 102
Width: 490
Flags: W
LayerCount: 2
Fore
SplineSet
75 -185 m 1,0,-1
 75 488 l 1,1,-1
 155 488 l 1,2,-1
 155 417 l 1,3,4
 181 457 181 457 214.5 478.5 c 128,-1,5
 248 500 248 500 287 500 c 0,6,7
 350 500 350 500 385 458 c 128,-1,8
 420 416 420 416 420 333 c 2,9,-1
 420 155 l 2,10,11
 420 76 420 76 379.5 32 c 128,-1,12
 339 -12 339 -12 270 -12 c 0,13,14
 242 -12 242 -12 212 -1 c 128,-1,15
 182 10 182 10 160 23 c 1,16,-1
 160 -185 l 1,17,-1
 75 -185 l 1,0,-1
270 424 m 256,18,19
 241 424 241 424 211.5 403 c 128,-1,20
 182 382 182 382 160 344 c 1,21,-1
 160 99 l 1,22,23
 182 82 182 82 207 72.5 c 128,-1,24
 232 63 232 63 253 63 c 0,25,26
 335 63 335 63 335 167 c 2,27,-1
 335 321 l 2,28,29
 335 378 335 378 317 401 c 128,-1,30
 299 424 299 424 270 424 c 256,18,19
EndSplineSet
EndChar

StartChar: q
Encoding: 113 113 103
Width: 491
Flags: W
LayerCount: 2
Fore
SplineSet
70 333 m 2,0,1
 70 411 70 411 106 455.5 c 128,-1,2
 142 500 142 500 211 500 c 0,3,4
 245 500 245 500 278.5 482 c 128,-1,5
 312 464 312 464 335 447 c 1,6,-1
 335 488 l 1,7,-1
 416 488 l 1,8,-1
 416 -185 l 1,9,-1
 331 -185 l 1,10,-1
 331 73 l 1,11,12
 302 31 302 31 269 9.5 c 128,-1,13
 236 -12 236 -12 198 -12 c 0,14,15
 136 -12 136 -12 103 30 c 128,-1,16
 70 72 70 72 70 155 c 2,17,-1
 70 333 l 2,0,1
218 64 m 0,18,19
 247 64 247 64 277 87 c 128,-1,20
 307 110 307 110 331 154 c 1,21,-1
 331 374 l 1,22,23
 310 396 310 396 281.5 410 c 128,-1,24
 253 424 253 424 230 424 c 0,25,26
 195 424 195 424 175 399.5 c 128,-1,27
 155 375 155 375 155 321 c 2,28,-1
 155 166 l 2,29,30
 155 109 155 109 172.5 86.5 c 128,-1,31
 190 64 190 64 218 64 c 0,18,19
EndSplineSet
EndChar

StartChar: r
Encoding: 114 114 104
Width: 345
Flags: W
LayerCount: 2
Fore
SplineSet
75 0 m 1,0,-1
 75 488 l 1,1,-1
 155 488 l 1,2,-1
 155 415 l 1,3,4
 181 456 181 456 215 478 c 128,-1,5
 249 500 249 500 288 500 c 0,6,7
 302 500 302 500 310 498 c 1,8,-1
 310 402 l 1,9,10
 302 404 302 404 293.5 404.5 c 128,-1,11
 285 405 285 405 271 405 c 0,12,13
 239 405 239 405 210.5 388.5 c 128,-1,14
 182 372 182 372 160 335 c 1,15,-1
 160 0 l 1,16,-1
 75 0 l 1,0,-1
EndSplineSet
EndChar

StartChar: s
Encoding: 115 115 105
Width: 389
Flags: W
LayerCount: 2
Fore
SplineSet
135 234 m 2,0,1
 90 251 90 251 67.5 280.5 c 128,-1,2
 45 310 45 310 45 348 c 2,3,-1
 45 361 l 2,4,5
 45 430 45 430 83.5 465 c 128,-1,6
 122 500 122 500 214 500 c 0,7,8
 237 500 237 500 261.5 497.5 c 128,-1,9
 286 495 286 495 319 488 c 1,10,-1
 317 416 l 1,11,12
 264 428 264 428 218 428 c 0,13,14
 165 428 165 428 147 413.5 c 128,-1,15
 129 399 129 399 129 369 c 2,16,-1
 129 361 l 2,17,18
 129 341 129 341 139 330 c 128,-1,19
 149 319 149 319 175 308 c 2,20,-1
 269 269 l 2,21,22
 313 251 313 251 336 220 c 128,-1,23
 359 189 359 189 359 152 c 2,24,-1
 359 128 l 2,25,26
 359 59 359 59 319.5 23.5 c 128,-1,27
 280 -12 280 -12 185 -12 c 0,28,29
 128 -12 128 -12 58 4 c 1,30,-1
 60 79 l 1,31,32
 124 63 124 63 185 63 c 0,33,34
 239 63 239 63 257 76.5 c 128,-1,35
 275 90 275 90 275 120 c 2,36,-1
 275 134 l 2,37,38
 275 157 275 157 265 172 c 128,-1,39
 255 187 255 187 232 196 c 2,40,-1
 135 234 l 2,0,1
EndSplineSet
EndChar

StartChar: t
Encoding: 116 116 106
Width: 343
Flags: W
LayerCount: 2
Fore
SplineSet
85 418 m 1,0,-1
 15 418 l 1,1,-1
 15 488 l 1,2,-1
 85 488 l 1,3,-1
 101 618 l 1,4,-1
 170 618 l 1,5,-1
 170 488 l 1,6,-1
 300 488 l 1,7,-1
 300 418 l 1,8,-1
 170 418 l 1,9,-1
 170 132 l 2,10,11
 170 94 170 94 186 77.5 c 128,-1,12
 202 61 202 61 234 61 c 0,13,14
 256 61 256 61 279.5 63.5 c 128,-1,15
 303 66 303 66 318 69 c 1,16,-1
 318 -2 l 1,17,18
 301 -6 301 -6 281 -9 c 128,-1,19
 261 -12 261 -12 238 -12 c 0,20,21
 159 -12 159 -12 122 23 c 128,-1,22
 85 58 85 58 85 139 c 2,23,-1
 85 418 l 1,0,-1
EndSplineSet
EndChar

StartChar: u
Encoding: 117 117 107
Width: 496
Flags: W
LayerCount: 2
Fore
SplineSet
421 488 m 1,0,-1
 421 0 l 1,1,-1
 341 0 l 1,2,-1
 341 70 l 1,3,4
 314 30 314 30 280.5 9 c 128,-1,5
 247 -12 247 -12 208 -12 c 0,6,7
 147 -12 147 -12 111 29 c 128,-1,8
 75 70 75 70 75 155 c 2,9,-1
 75 488 l 1,10,-1
 160 488 l 1,11,-1
 160 170 l 2,12,13
 160 115 160 115 178 91 c 128,-1,14
 196 67 196 67 225 67 c 256,15,16
 254 67 254 67 283.5 88.5 c 128,-1,17
 313 110 313 110 336 148 c 1,18,-1
 336 488 l 1,19,-1
 421 488 l 1,0,-1
EndSplineSet
EndChar

StartChar: v
Encoding: 118 118 108
Width: 442
Flags: W
LayerCount: 2
Fore
SplineSet
276 0 m 1,0,-1
 165 0 l 1,1,-1
 15 488 l 1,2,-1
 105 488 l 1,3,-1
 221 62 l 1,4,-1
 337 488 l 1,5,-1
 427 488 l 1,6,-1
 276 0 l 1,0,-1
EndSplineSet
EndChar

StartChar: w
Encoding: 119 119 109
Width: 688
Flags: W
LayerCount: 2
Fore
SplineSet
553 0 m 1,0,-1
 446 0 l 1,1,-1
 344 414 l 1,2,-1
 241 0 l 1,3,-1
 134 0 l 1,4,-1
 25 488 l 1,5,-1
 115 488 l 1,6,-1
 191 75 l 1,7,-1
 289 488 l 1,8,-1
 399 488 l 1,9,-1
 496 75 l 1,10,-1
 573 488 l 1,11,-1
 663 488 l 1,12,-1
 553 0 l 1,0,-1
EndSplineSet
EndChar

StartChar: x
Encoding: 120 120 110
Width: 461
Flags: W
LayerCount: 2
Fore
SplineSet
230 190 m 1,0,-1
 122 0 l 1,1,-1
 25 0 l 1,2,-1
 176 252 l 1,3,-1
 35 488 l 1,4,-1
 132 488 l 1,5,-1
 230 314 l 1,6,-1
 328 488 l 1,7,-1
 425 488 l 1,8,-1
 284 252 l 1,9,-1
 436 0 l 1,10,-1
 339 0 l 1,11,-1
 230 190 l 1,0,-1
EndSplineSet
EndChar

StartChar: y
Encoding: 121 121 111
Width: 446
Flags: W
LayerCount: 2
Fore
SplineSet
207 -185 m 1,0,-1
 122 -185 l 1,1,-1
 186 0 l 1,2,-1
 154 0 l 1,3,-1
 15 488 l 1,4,-1
 108 488 l 1,5,-1
 213 61 l 1,6,-1
 343 488 l 1,7,-1
 431 488 l 1,8,-1
 207 -185 l 1,0,-1
EndSplineSet
EndChar

StartChar: z
Encoding: 122 122 112
Width: 426
Flags: W
LayerCount: 2
Fore
SplineSet
45 0 m 1,0,-1
 45 65 l 1,1,-1
 269 413 l 1,2,-1
 50 413 l 1,3,-1
 50 488 l 1,4,-1
 371 488 l 1,5,-1
 371 423 l 1,6,-1
 148 75 l 1,7,-1
 371 75 l 1,8,-1
 371 0 l 1,9,-1
 45 0 l 1,0,-1
EndSplineSet
EndChar

StartChar: braceleft
Encoding: 123 123 113
Width: 520
Flags: W
LayerCount: 2
Fore
SplineSet
208 219 m 2,0,1
 208 265 208 265 193.5 282 c 128,-1,2
 179 299 179 299 143 299 c 2,3,-1
 118 299 l 1,4,-1
 118 369 l 1,5,-1
 143 369 l 2,6,7
 179 369 179 369 193.5 385.5 c 128,-1,8
 208 402 208 402 208 449 c 2,9,-1
 208 630 l 2,10,11
 208 677 208 677 215.5 707.5 c 128,-1,12
 223 738 223 738 242.5 755.5 c 128,-1,13
 262 773 262 773 295 780 c 128,-1,14
 328 787 328 787 379 787 c 1,15,-1
 379 717 l 1,16,17
 353 717 353 717 336.5 714 c 128,-1,18
 320 711 320 711 310 703 c 128,-1,19
 300 695 300 695 296.5 681 c 128,-1,20
 293 667 293 667 293 644 c 2,21,-1
 293 449 l 2,22,23
 293 398 293 398 279 371 c 128,-1,24
 265 344 265 344 235 334 c 1,25,26
 266 323 266 323 279.5 296.5 c 128,-1,27
 293 270 293 270 293 219 c 2,28,-1
 293 40 l 2,29,30
 293 12 293 12 296 -5.5 c 128,-1,31
 299 -23 299 -23 308 -32.5 c 128,-1,32
 317 -42 317 -42 334 -45.5 c 128,-1,33
 351 -49 351 -49 379 -49 c 1,34,-1
 379 -119 l 1,35,36
 329 -119 329 -119 296 -111.5 c 128,-1,37
 263 -104 263 -104 243.5 -85.5 c 128,-1,38
 224 -67 224 -67 216 -36 c 128,-1,39
 208 -5 208 -5 208 43 c 2,40,-1
 208 219 l 2,0,1
EndSplineSet
EndChar

StartChar: bar
Encoding: 124 124 114
Width: 520
Flags: W
LayerCount: 2
Fore
SplineSet
217 -112 m 1,0,-1
 217 798 l 1,1,-1
 302 798 l 1,2,-1
 302 -112 l 1,3,-1
 217 -112 l 1,0,-1
EndSplineSet
EndChar

StartChar: braceright
Encoding: 125 125 115
Width: 520
Flags: W
LayerCount: 2
Fore
SplineSet
311 43 m 2,0,1
 311 -5 311 -5 303 -36 c 128,-1,2
 295 -67 295 -67 275.5 -85.5 c 128,-1,3
 256 -104 256 -104 223 -111.5 c 128,-1,4
 190 -119 190 -119 140 -119 c 1,5,-1
 140 -49 l 1,6,7
 168 -49 168 -49 185 -45.5 c 128,-1,8
 202 -42 202 -42 211 -32.5 c 128,-1,9
 220 -23 220 -23 223 -5.5 c 128,-1,10
 226 12 226 12 226 40 c 2,11,-1
 226 219 l 2,12,13
 226 270 226 270 239.5 296.5 c 128,-1,14
 253 323 253 323 284 334 c 1,15,16
 254 344 254 344 240 371 c 128,-1,17
 226 398 226 398 226 449 c 2,18,-1
 226 644 l 2,19,20
 226 667 226 667 222.5 681 c 128,-1,21
 219 695 219 695 209 703 c 128,-1,22
 199 711 199 711 182.5 714 c 128,-1,23
 166 717 166 717 140 717 c 1,24,-1
 140 787 l 1,25,26
 191 787 191 787 224 780 c 128,-1,27
 257 773 257 773 276.5 755.5 c 128,-1,28
 296 738 296 738 303.5 707.5 c 128,-1,29
 311 677 311 677 311 630 c 2,30,-1
 311 449 l 2,31,32
 311 402 311 402 325.5 385.5 c 128,-1,33
 340 369 340 369 376 369 c 2,34,-1
 401 369 l 1,35,-1
 401 299 l 1,36,-1
 376 299 l 2,37,38
 340 299 340 299 325.5 282 c 128,-1,39
 311 265 311 265 311 219 c 2,40,-1
 311 43 l 2,0,1
EndSplineSet
EndChar

StartChar: asciitilde
Encoding: 126 126 116
Width: 520
Flags: W
LayerCount: 2
Fore
SplineSet
437 279 m 1,0,1
 425 271 425 271 409 265 c 0,2,3
 395 260 395 260 377 255.5 c 128,-1,4
 359 251 359 251 337 251 c 0,5,6
 310 251 310 251 292 255.5 c 128,-1,7
 274 260 274 260 258 265 c 128,-1,8
 242 270 242 270 224 274.5 c 128,-1,9
 206 279 206 279 181 279 c 0,10,11
 167 279 167 279 150 275 c 128,-1,12
 133 271 133 271 118 266 c 0,13,14
 100 261 100 261 83 254 c 1,15,-1
 83 324 l 1,16,17
 95 332 95 332 111 338 c 0,18,19
 125 343 125 343 143 347.5 c 128,-1,20
 161 352 161 352 183 352 c 0,21,22
 210 352 210 352 228 347.5 c 128,-1,23
 246 343 246 343 262.5 338 c 128,-1,24
 279 333 279 333 296.5 328.5 c 128,-1,25
 314 324 314 324 339 324 c 0,26,27
 353 324 353 324 370 327.5 c 128,-1,28
 387 331 387 331 402 336 c 0,29,30
 420 341 420 341 437 349 c 1,31,-1
 437 279 l 1,0,1
EndSplineSet
EndChar

StartChar: cent
Encoding: 162 162 119
Width: 520
Flags: W
LayerCount: 2
Fore
SplineSet
250 -88 m 1,0,-1
 250 -7 l 1,1,2
 183 4 183 4 151.5 49 c 128,-1,3
 120 94 120 94 120 170 c 2,4,-1
 120 318 l 2,5,6
 120 393 120 393 151.5 438 c 128,-1,7
 183 483 183 483 250 495 c 1,8,-1
 250 576 l 1,9,-1
 325 576 l 1,10,-1
 325 499 l 1,11,12
 342 498 342 498 358 496 c 128,-1,13
 374 494 374 494 399 490 c 1,14,-1
 397 415 l 1,15,16
 371 420 371 420 350.5 422.5 c 128,-1,17
 330 425 330 425 301 425 c 0,18,19
 253 425 253 425 229 399 c 128,-1,20
 205 373 205 373 205 325 c 2,21,-1
 205 164 l 2,22,23
 205 113 205 113 230.5 88 c 128,-1,24
 256 63 256 63 301 63 c 0,25,26
 330 63 330 63 350.5 65.5 c 128,-1,27
 371 68 371 68 397 73 c 1,28,-1
 399 -2 l 1,29,30
 374 -6 374 -6 358 -8 c 128,-1,31
 342 -10 342 -10 325 -11 c 1,32,-1
 325 -88 l 1,33,-1
 250 -88 l 1,0,-1
EndSplineSet
EndChar

StartChar: sterling
Encoding: 163 163 120
Width: 520
Flags: W
LayerCount: 2
Fore
SplineSet
226 375 m 1,0,-1
 321 375 l 1,1,-1
 321 305 l 1,2,-1
 226 305 l 1,3,-1
 226 184 l 2,4,5
 226 141 226 141 215.5 115.5 c 128,-1,6
 205 90 205 90 185 74 c 1,7,-1
 448 74 l 1,8,-1
 448 0 l 1,9,-1
 101 0 l 1,10,-1
 101 60 l 1,11,12
 122 86 122 86 131.5 111.5 c 128,-1,13
 141 137 141 137 141 166 c 2,14,-1
 141 305 l 1,15,-1
 71 305 l 1,16,-1
 71 375 l 1,17,-1
 141 375 l 1,18,-1
 141 457 l 2,19,20
 141 537 141 537 181.5 575 c 128,-1,21
 222 613 222 613 308 613 c 0,22,23
 331 613 331 613 357 608.5 c 128,-1,24
 383 604 383 604 403 598 c 1,25,-1
 403 530 l 1,26,27
 388 535 388 535 365 539 c 128,-1,28
 342 543 342 543 321 543 c 0,29,30
 267 543 267 543 246.5 523.5 c 128,-1,31
 226 504 226 504 226 462 c 2,32,-1
 226 375 l 1,0,-1
EndSplineSet
EndChar

StartChar: currency
Encoding: 164 164 121
Width: 520
Flags: W
LayerCount: 2
Fore
SplineSet
419 93 m 1,0,-1
 357 156 l 1,1,2
 316 132 316 132 258 132 c 0,3,4
 201 132 201 132 161 154 c 1,5,-1
 101 93 l 1,6,-1
 45 149 l 1,7,-1
 107 210 l 1,8,9
 96 230 96 230 90 252 c 128,-1,10
 84 274 84 274 84 303 c 2,11,-1
 84 323 l 2,12,13
 84 349 84 349 88.5 369.5 c 128,-1,14
 93 390 93 390 103 410 c 1,15,-1
 45 467 l 1,16,-1
 101 523 l 1,17,-1
 155 468 l 1,18,19
 198 494 198 494 258 494 c 0,20,21
 319 494 319 494 363 466 c 1,22,-1
 419 523 l 1,23,-1
 475 467 l 1,24,-1
 414 407 l 1,25,26
 431 372 431 372 431 323 c 2,27,-1
 431 303 l 2,28,29
 431 275 431 275 426 254 c 128,-1,30
 421 233 421 233 410 213 c 1,31,-1
 475 149 l 1,32,-1
 419 93 l 1,0,-1
349 323 m 2,33,34
 349 364 349 364 328.5 392.5 c 128,-1,35
 308 421 308 421 258 421 c 256,36,37
 208 421 208 421 187 393 c 128,-1,38
 166 365 166 365 166 323 c 2,39,-1
 166 303 l 2,40,41
 166 261 166 261 187 232.5 c 128,-1,42
 208 204 208 204 258 204 c 256,43,44
 308 204 308 204 328.5 232.5 c 128,-1,45
 349 261 349 261 349 303 c 2,46,-1
 349 323 l 2,33,34
EndSplineSet
EndChar

StartChar: yen
Encoding: 165 165 122
Width: 520
Flags: W
LayerCount: 2
Fore
SplineSet
302 78 m 1,0,-1
 302 0 l 1,1,-1
 217 0 l 1,2,-1
 217 78 l 1,3,-1
 122 78 l 1,4,-1
 122 148 l 1,5,-1
 217 148 l 1,6,-1
 217 189 l 1,7,-1
 122 189 l 1,8,-1
 122 259 l 1,9,-1
 188 259 l 1,10,-1
 27 601 l 1,11,-1
 122 601 l 1,12,-1
 260 280 l 1,13,-1
 397 601 l 1,14,-1
 492 601 l 1,15,-1
 331 259 l 1,16,-1
 396 259 l 1,17,-1
 396 189 l 1,18,-1
 302 189 l 1,19,-1
 302 148 l 1,20,-1
 396 148 l 1,21,-1
 396 78 l 1,22,-1
 302 78 l 1,0,-1
EndSplineSet
EndChar

StartChar: brokenbar
Encoding: 166 166 123
Width: 520
Flags: W
LayerCount: 2
Fore
SplineSet
217 408 m 1,0,-1
 217 801 l 1,1,-1
 302 801 l 1,2,-1
 302 408 l 1,3,-1
 217 408 l 1,0,-1
217 -115 m 1,4,-1
 217 278 l 1,5,-1
 302 278 l 1,6,-1
 302 -115 l 1,7,-1
 217 -115 l 1,4,-1
EndSplineSet
EndChar

StartChar: section
Encoding: 167 167 124
Width: 403
Flags: W
LayerCount: 2
Fore
SplineSet
271 46 m 2,0,1
 271 72 271 72 262 87 c 128,-1,2
 253 102 253 102 230 110 c 2,3,-1
 123 147 l 2,4,5
 64 167 64 167 39.5 195 c 128,-1,6
 15 223 15 223 15 268 c 2,7,-1
 15 292 l 2,8,9
 15 318 15 318 22.5 340.5 c 128,-1,10
 30 363 30 363 43 380 c 128,-1,11
 56 397 56 397 74 407.5 c 128,-1,12
 92 418 92 418 113 421 c 1,13,14
 83 432 83 432 64 460 c 128,-1,15
 45 488 45 488 45 528 c 2,16,-1
 45 556 l 2,17,18
 45 625 45 625 82.5 660 c 128,-1,19
 120 695 120 695 212 695 c 0,20,21
 236 695 236 695 259.5 692.5 c 128,-1,22
 283 690 283 690 316 683 c 1,23,-1
 314 612 l 1,24,25
 288 618 288 618 264 621 c 128,-1,26
 240 624 240 624 216 624 c 0,27,28
 167 624 167 624 149.5 609.5 c 128,-1,29
 132 595 132 595 132 564 c 2,30,-1
 132 531 l 2,31,32
 132 510 132 510 141 497.5 c 128,-1,33
 150 485 150 485 173 476 c 2,34,-1
 280 435 l 2,35,36
 338 413 338 413 363 383 c 128,-1,37
 388 353 388 353 388 315 c 2,38,-1
 388 284 l 2,39,40
 388 239 388 239 363.5 205.5 c 128,-1,41
 339 172 339 172 294 163 c 1,42,43
 323 152 323 152 340.5 124.5 c 128,-1,44
 358 97 358 97 358 59 c 2,45,-1
 358 21 l 2,46,47
 358 -49 358 -49 318 -84 c 128,-1,48
 278 -119 278 -119 183 -119 c 0,49,50
 149 -119 149 -119 121 -115 c 128,-1,51
 93 -111 93 -111 60 -104 c 1,52,-1
 62 -29 l 1,53,54
 88 -35 88 -35 117 -39.5 c 128,-1,55
 146 -44 146 -44 183 -44 c 0,56,57
 235 -44 235 -44 253 -31 c 128,-1,58
 271 -18 271 -18 271 13 c 2,59,-1
 271 46 l 2,0,1
203 378 m 1,60,61
 153 377 153 377 127.5 353 c 128,-1,62
 102 329 102 329 102 294 c 2,63,-1
 102 269 l 2,64,65
 102 252 102 252 114.5 240 c 128,-1,66
 127 228 127 228 163 216 c 2,67,-1
 209 201 l 1,68,69
 255 203 255 203 278 225.5 c 128,-1,70
 301 248 301 248 301 282 c 2,71,-1
 301 305 l 2,72,73
 301 349 301 349 240 367 c 2,74,-1
 203 378 l 1,60,61
EndSplineSet
EndChar

StartChar: dieresis
Encoding: 168 168 125
Width: 431
Flags: W
LayerCount: 2
Fore
SplineSet
184 621 m 2,0,1
 184 577 184 577 129 577 c 0,2,3
 103 577 103 577 89 588.5 c 128,-1,4
 75 600 75 600 75 621 c 2,5,-1
 75 650 l 2,6,7
 75 673 75 673 89 684 c 128,-1,8
 103 695 103 695 129 695 c 0,9,10
 184 695 184 695 184 650 c 2,11,-1
 184 621 l 2,0,1
356 621 m 2,12,13
 356 577 356 577 301 577 c 0,14,15
 247 577 247 577 247 621 c 2,16,-1
 247 650 l 2,17,18
 247 695 247 695 301 695 c 0,19,20
 356 695 356 695 356 650 c 2,21,-1
 356 621 l 2,12,13
EndSplineSet
EndChar

StartChar: copyright
Encoding: 169 169 126
Width: 646
Flags: W
LayerCount: 2
Fore
SplineSet
505 416 m 2,0,1
 505 476 505 476 458 513 c 128,-1,2
 411 550 411 550 323 550 c 256,3,4
 235 550 235 550 188 512.5 c 128,-1,5
 141 475 141 475 141 415 c 2,6,-1
 141 186 l 2,7,8
 141 126 141 126 188 88.5 c 128,-1,9
 235 51 235 51 323 51 c 256,10,11
 411 51 411 51 458 88.5 c 128,-1,12
 505 126 505 126 505 186 c 2,13,-1
 505 416 l 2,0,1
576 197 m 2,14,15
 576 151 576 151 562 112.5 c 128,-1,16
 548 74 548 74 517 45.5 c 128,-1,17
 486 17 486 17 438 1 c 128,-1,18
 390 -15 390 -15 323 -15 c 0,19,20
 255 -15 255 -15 207.5 1 c 128,-1,21
 160 17 160 17 129 45.5 c 128,-1,22
 98 74 98 74 84 112.5 c 128,-1,23
 70 151 70 151 70 197 c 2,24,-1
 70 404 l 2,25,26
 70 450 70 450 84 488.5 c 128,-1,27
 98 527 98 527 129 555.5 c 128,-1,28
 160 584 160 584 207.5 600 c 128,-1,29
 255 616 255 616 323 616 c 0,30,31
 390 616 390 616 438 600 c 128,-1,32
 486 584 486 584 517 555.5 c 128,-1,33
 548 527 548 527 562 488.5 c 128,-1,34
 576 450 576 450 576 404 c 2,35,-1
 576 197 l 2,14,15
337 129 m 0,36,37
 199 129 199 129 199 277 c 2,38,-1
 199 333 l 2,39,40
 199 405 199 405 233.5 442.5 c 128,-1,41
 268 480 268 480 337 480 c 0,42,43
 356 480 356 480 376.5 478 c 128,-1,44
 397 476 397 476 415 473 c 1,45,-1
 413 407 l 1,46,47
 394 409 394 409 376.5 410.5 c 128,-1,48
 359 412 359 412 337 412 c 0,49,50
 311 412 311 412 295.5 393.5 c 128,-1,51
 280 375 280 375 280 333 c 2,52,-1
 280 278 l 2,53,54
 280 237 280 237 295.5 217 c 128,-1,55
 311 197 311 197 337 197 c 0,56,57
 359 197 359 197 376.5 198.5 c 128,-1,58
 394 200 394 200 413 202 c 1,59,-1
 415 136 l 1,60,61
 389 132 389 132 372.5 130.5 c 128,-1,62
 356 129 356 129 337 129 c 0,36,37
EndSplineSet
EndChar

StartChar: ordfeminine
Encoding: 170 170 127
Width: 520
Flags: W
LayerCount: 2
Fore
SplineSet
429 226 m 1,0,-1
 348 226 l 1,1,-1
 348 304 l 1,2,3
 289 214 289 214 217 214 c 0,4,5
 159 214 159 214 124.5 250 c 128,-1,6
 90 286 90 286 90 348 c 2,7,-1
 90 376 l 2,8,9
 90 402 90 402 100 425 c 128,-1,10
 110 448 110 448 129.5 465.5 c 128,-1,11
 149 483 149 483 177 493 c 128,-1,12
 205 503 205 503 241 503 c 0,13,14
 263 503 263 503 292 499 c 128,-1,15
 321 495 321 495 344 490 c 1,16,-1
 344 516 l 2,17,18
 344 561 344 561 324.5 579 c 128,-1,19
 305 597 305 597 264 597 c 0,20,21
 249 597 249 597 231 595.5 c 128,-1,22
 213 594 213 594 195 591.5 c 128,-1,23
 177 589 177 589 159.5 586.5 c 128,-1,24
 142 584 142 584 129 582 c 1,25,-1
 129 652 l 1,26,27
 162 657 162 657 200 662 c 128,-1,28
 238 667 238 667 264 667 c 0,29,30
 350 667 350 667 389.5 629 c 128,-1,31
 429 591 429 591 429 506 c 2,32,-1
 429 226 l 1,0,-1
90 0 m 1,33,-1
 90 73 l 1,34,-1
 429 73 l 1,35,-1
 429 0 l 1,36,-1
 90 0 l 1,33,-1
236 290 m 256,37,38
 262 290 262 290 291 307 c 128,-1,39
 320 324 320 324 344 366 c 1,40,-1
 344 428 l 1,41,42
 324 432 324 432 301 433.5 c 128,-1,43
 278 435 278 435 262 435 c 0,44,45
 220 435 220 435 198 416 c 128,-1,46
 176 397 176 397 176 365 c 2,47,-1
 176 354 l 2,48,49
 176 324 176 324 193 307 c 128,-1,50
 210 290 210 290 236 290 c 256,37,38
EndSplineSet
EndChar

StartChar: guillemotleft
Encoding: 171 171 128
Width: 488
Flags: W
LayerCount: 2
Fore
SplineSet
253 488 m 1,0,-1
 160 318 l 1,1,-1
 253 148 l 1,2,-1
 165 148 l 1,3,-1
 65 318 l 1,4,-1
 165 488 l 1,5,-1
 253 488 l 1,0,-1
423 488 m 1,6,-1
 330 318 l 1,7,-1
 423 148 l 1,8,-1
 335 148 l 1,9,-1
 235 318 l 1,10,-1
 335 488 l 1,11,-1
 423 488 l 1,6,-1
EndSplineSet
EndChar

StartChar: logicalnot
Encoding: 172 172 129
Width: 520
Flags: W
LayerCount: 2
Fore
SplineSet
364 113 m 1,0,-1
 364 265 l 1,1,-1
 79 265 l 1,2,-1
 79 335 l 1,3,-1
 440 335 l 1,4,-1
 440 113 l 1,5,-1
 364 113 l 1,0,-1
EndSplineSet
EndChar

StartChar: registered
Encoding: 174 174 131
Width: 536
Flags: W
LayerCount: 2
Fore
SplineSet
461 479 m 2,0,1
 461 395 461 395 417 346 c 128,-1,2
 373 297 373 297 268 297 c 256,3,4
 163 297 163 297 119 346 c 128,-1,5
 75 395 75 395 75 479 c 2,6,-1
 75 513 l 2,7,8
 75 597 75 597 119 646 c 128,-1,9
 163 695 163 695 268 695 c 256,10,11
 373 695 373 695 417 646 c 128,-1,12
 461 597 461 597 461 513 c 2,13,-1
 461 479 l 2,0,1
410 523 m 2,14,15
 410 586 410 586 377.5 617 c 128,-1,16
 345 648 345 648 268 648 c 256,17,18
 191 648 191 648 158.5 616 c 128,-1,19
 126 584 126 584 126 522 c 2,20,-1
 126 470 l 2,21,22
 126 408 126 408 158.5 376 c 128,-1,23
 191 344 191 344 268 344 c 256,24,25
 345 344 345 344 377.5 376 c 128,-1,26
 410 408 410 408 410 470 c 2,27,-1
 410 523 l 2,14,15
195 381 m 1,28,-1
 195 614 l 1,29,30
 215 615 215 615 235.5 615.5 c 128,-1,31
 256 616 256 616 269 616 c 0,32,33
 320 616 320 616 340 596.5 c 128,-1,34
 360 577 360 577 360 546 c 2,35,-1
 360 535 l 2,36,37
 360 514 360 514 347.5 497.5 c 128,-1,38
 335 481 335 481 314 472 c 1,39,-1
 368 381 l 1,40,-1
 318 381 l 1,41,-1
 270 465 l 1,42,-1
 238 465 l 1,43,-1
 238 381 l 1,44,-1
 195 381 l 1,28,-1
272 576 m 0,45,46
 267 576 267 576 255.5 575.5 c 128,-1,47
 244 575 244 575 238 574 c 1,48,-1
 238 506 l 1,49,50
 249 505 249 505 258 505 c 2,51,-1
 274 505 l 2,52,53
 297 505 297 505 306.5 513.5 c 128,-1,54
 316 522 316 522 316 536 c 2,55,-1
 316 545 l 2,56,57
 316 561 316 561 306 568.5 c 128,-1,58
 296 576 296 576 272 576 c 0,45,46
EndSplineSet
EndChar

StartChar: macron
Encoding: 175 175 132
Width: 385
Flags: W
LayerCount: 2
Fore
SplineSet
85 606 m 1,0,-1
 85 681 l 1,1,-1
 300 681 l 1,2,-1
 300 606 l 1,3,-1
 85 606 l 1,0,-1
EndSplineSet
EndChar

StartChar: degree
Encoding: 176 176 133
Width: 600
Flags: W
LayerCount: 2
Fore
SplineSet
408 500 m 2,0,1
 408 415 408 415 367 371 c 128,-1,2
 326 327 326 327 243 327 c 256,3,4
 160 327 160 327 118.5 371 c 128,-1,5
 77 415 77 415 77 500 c 2,6,-1
 77 522 l 2,7,8
 77 607 77 607 118.5 651 c 128,-1,9
 160 695 160 695 243 695 c 256,10,11
 326 695 326 695 367 651 c 128,-1,12
 408 607 408 607 408 522 c 2,13,-1
 408 500 l 2,0,1
327 522 m 2,14,15
 327 575 327 575 305.5 599.5 c 128,-1,16
 284 624 284 624 243 624 c 256,17,18
 202 624 202 624 180 599.5 c 128,-1,19
 158 575 158 575 158 522 c 2,20,-1
 158 500 l 2,21,22
 158 447 158 447 180 422.5 c 128,-1,23
 202 398 202 398 243 398 c 0,24,25
 283 398 283 398 305 422.5 c 128,-1,26
 327 447 327 447 327 500 c 2,27,-1
 327 522 l 2,14,15
EndSplineSet
EndChar

StartChar: plusminus
Encoding: 177 177 134
Width: 520
Flags: W
LayerCount: 2
Fore
SplineSet
81 0 m 1,0,-1
 81 70 l 1,1,-1
 437 70 l 1,2,-1
 437 0 l 1,3,-1
 81 0 l 1,0,-1
298 265 m 1,4,-1
 298 113 l 1,5,-1
 222 113 l 1,6,-1
 222 265 l 1,7,-1
 82 265 l 1,8,-1
 82 336 l 1,9,-1
 222 336 l 1,10,-1
 222 488 l 1,11,-1
 298 488 l 1,12,-1
 298 336 l 1,13,-1
 438 336 l 1,14,-1
 438 265 l 1,15,-1
 298 265 l 1,4,-1
EndSplineSet
EndChar

StartChar: twosuperior
Encoding: 178 178 135
Width: 390
Flags: W
LayerCount: 2
Fore
SplineSet
174 546 m 0,0,1
 151 546 151 546 123.5 541 c 128,-1,2
 96 536 96 536 76 529 c 1,3,-1
 76 594 l 1,4,5
 101 601 101 601 127.5 605.5 c 128,-1,6
 154 610 154 610 174 610 c 0,7,8
 253 610 253 610 287.5 582 c 128,-1,9
 322 554 322 554 322 502 c 2,10,-1
 322 484 l 2,11,12
 322 450 322 450 309 420.5 c 128,-1,13
 296 391 296 391 259 351 c 2,14,-1
 162 247 l 1,15,-1
 323 247 l 1,16,-1
 323 181 l 1,17,-1
 67 181 l 1,18,-1
 67 241 l 1,19,-1
 215 411 l 2,20,21
 225 422 225 422 231 430.5 c 128,-1,22
 237 439 237 439 240.5 447 c 128,-1,23
 244 455 244 455 245 463.5 c 128,-1,24
 246 472 246 472 246 483 c 2,25,-1
 246 499 l 2,26,27
 246 523 246 523 230 534.5 c 128,-1,28
 214 546 214 546 174 546 c 0,0,1
EndSplineSet
EndChar

StartChar: threesuperior
Encoding: 179 179 136
Width: 390
Flags: W
LayerCount: 2
Fore
SplineSet
169 549 m 0,0,1
 147 549 147 549 120.5 545.5 c 128,-1,2
 94 542 94 542 74 539 c 1,3,-1
 74 601 l 1,4,5
 99 605 99 605 124 607.5 c 128,-1,6
 149 610 149 610 169 610 c 0,7,8
 239 610 239 610 272.5 581 c 128,-1,9
 306 552 306 552 306 502 c 2,10,-1
 306 495 l 2,11,12
 306 462 306 462 292 440 c 128,-1,13
 278 418 278 418 246 403 c 1,14,15
 280 389 280 389 298 362.5 c 128,-1,16
 316 336 316 336 316 302 c 2,17,-1
 316 295 l 2,18,19
 316 241 316 241 279.5 207 c 128,-1,20
 243 173 243 173 171 173 c 0,21,22
 152 173 152 173 125.5 175.5 c 128,-1,23
 99 178 99 178 74 182 c 1,24,-1
 74 243 l 1,25,26
 94 240 94 240 122.5 237.5 c 128,-1,27
 151 235 151 235 173 235 c 0,28,29
 206 235 206 235 221.5 250 c 128,-1,30
 237 265 237 265 237 291 c 2,31,-1
 237 304 l 2,32,33
 237 336 237 336 220 352 c 128,-1,34
 203 368 203 368 161 368 c 2,35,-1
 103 368 l 1,36,-1
 103 427 l 1,37,-1
 161 427 l 2,38,39
 199 427 199 427 214 442 c 128,-1,40
 229 457 229 457 229 489 c 2,41,-1
 229 502 l 2,42,43
 229 527 229 527 215 538 c 128,-1,44
 201 549 201 549 169 549 c 0,0,1
EndSplineSet
EndChar

StartChar: acute
Encoding: 180 180 137
Width: 311
Flags: W
LayerCount: 2
Fore
SplineSet
141 546 m 1,0,-1
 75 546 l 1,1,-1
 151 685 l 1,2,-1
 236 685 l 1,3,-1
 141 546 l 1,0,-1
EndSplineSet
EndChar

StartChar: mu
Encoding: 181 181 138
Width: 520
Flags: W
LayerCount: 2
Fore
SplineSet
87 -185 m 1,0,-1
 87 488 l 1,1,-1
 172 488 l 1,2,-1
 172 170 l 2,3,4
 172 115 172 115 190 91 c 128,-1,5
 208 67 208 67 237 67 c 256,6,7
 266 67 266 67 295.5 88.5 c 128,-1,8
 325 110 325 110 348 148 c 1,9,-1
 348 488 l 1,10,-1
 433 488 l 1,11,-1
 433 0 l 1,12,-1
 353 0 l 1,13,-1
 353 70 l 1,14,15
 326 30 326 30 294 9 c 128,-1,16
 262 -12 262 -12 230 -12 c 0,17,18
 194 -12 194 -12 172 2 c 1,19,-1
 172 -185 l 1,20,-1
 87 -185 l 1,0,-1
EndSplineSet
EndChar

StartChar: paragraph
Encoding: 182 182 139
Width: 546
Flags: W
LayerCount: 2
Fore
SplineSet
280 683 m 1,0,-1
 280 -185 l 1,1,-1
 194 -185 l 1,2,-1
 194 313 l 1,3,-1
 144 313 l 2,4,5
 84 313 84 313 52 343 c 128,-1,6
 20 373 20 373 20 433 c 2,7,-1
 20 560 l 2,8,9
 20 617 20 617 50.5 650 c 128,-1,10
 81 683 81 683 144 683 c 2,11,-1
 280 683 l 1,0,-1
471 683 m 1,12,-1
 471 -185 l 1,13,-1
 385 -185 l 1,14,-1
 385 683 l 1,15,-1
 471 683 l 1,12,-1
102 458 m 2,16,17
 102 418 102 418 114 403 c 128,-1,18
 126 388 126 388 154 388 c 2,19,-1
 194 388 l 1,20,-1
 194 610 l 1,21,-1
 154 610 l 2,22,23
 126 610 126 610 114 595.5 c 128,-1,24
 102 581 102 581 102 540 c 2,25,-1
 102 458 l 2,16,17
EndSplineSet
EndChar

StartChar: cedilla
Encoding: 184 184 141
Width: 299
Flags: W
LayerCount: 2
Fore
SplineSet
190 -120 m 2,0,1
 190 -197 190 -197 95 -197 c 0,2,3
 83 -197 83 -197 71.5 -195.5 c 128,-1,4
 60 -194 60 -194 46 -192 c 1,5,-1
 46 -139 l 1,6,7
 57 -141 57 -141 65.5 -142 c 128,-1,8
 74 -143 74 -143 82 -143 c 0,9,10
 104 -143 104 -143 113.5 -136.5 c 128,-1,11
 123 -130 123 -130 123 -119 c 2,12,-1
 123 -106 l 1,13,14
 122 -91 122 -91 114 -85.5 c 128,-1,15
 106 -80 106 -80 89 -80 c 2,16,-1
 59 -80 l 1,17,-1
 59 -59 l 1,18,-1
 86 28 l 1,19,-1
 149 28 l 1,20,-1
 128 -41 l 1,21,-1
 138 -41 l 2,22,23
 159 -41 159 -41 174.5 -58.5 c 128,-1,24
 190 -76 190 -76 190 -105 c 2,25,-1
 190 -120 l 2,0,1
EndSplineSet
EndChar

StartChar: onesuperior
Encoding: 185 185 142
Width: 390
Flags: W
LayerCount: 2
Fore
SplineSet
79 181 m 1,0,-1
 79 247 l 1,1,-1
 171 247 l 1,2,-1
 171 526 l 1,3,-1
 73 487 l 1,4,-1
 58 554 l 1,5,-1
 186 602 l 1,6,-1
 251 602 l 1,7,-1
 251 247 l 1,8,-1
 331 247 l 1,9,-1
 331 181 l 1,10,-1
 79 181 l 1,0,-1
EndSplineSet
EndChar

StartChar: ordmasculine
Encoding: 186 186 143
Width: 520
Flags: W
LayerCount: 2
Fore
SplineSet
89 0 m 1,0,-1
 89 73 l 1,1,-1
 431 73 l 1,2,-1
 431 0 l 1,3,-1
 89 0 l 1,0,-1
351 493 m 2,4,5
 351 544 351 544 327 570 c 128,-1,6
 303 596 303 596 260 596 c 256,7,8
 217 596 217 596 193 569.5 c 128,-1,9
 169 543 169 543 169 492 c 2,10,-1
 169 390 l 2,11,12
 169 339 169 339 193 312.5 c 128,-1,13
 217 286 217 286 260 286 c 256,14,15
 303 286 303 286 327 312.5 c 128,-1,16
 351 339 351 339 351 390 c 2,17,-1
 351 493 l 2,4,5
436 397 m 2,18,19
 436 306 436 306 391.5 260.5 c 128,-1,20
 347 215 347 215 260 215 c 0,21,22
 174 215 174 215 129 260.5 c 128,-1,23
 84 306 84 306 84 397 c 2,24,-1
 84 485 l 2,25,26
 84 572 84 572 126.5 619.5 c 128,-1,27
 169 667 169 667 260 667 c 256,28,29
 351 667 351 667 393.5 619.5 c 128,-1,30
 436 572 436 572 436 485 c 2,31,-1
 436 397 l 2,18,19
EndSplineSet
EndChar

StartChar: guillemotright
Encoding: 187 187 144
Width: 488
Flags: W
LayerCount: 2
Fore
SplineSet
323 488 m 1,0,-1
 423 318 l 1,1,-1
 323 148 l 1,2,-1
 235 148 l 1,3,-1
 328 318 l 1,4,-1
 235 488 l 1,5,-1
 323 488 l 1,0,-1
153 488 m 1,6,-1
 253 318 l 1,7,-1
 153 148 l 1,8,-1
 65 148 l 1,9,-1
 158 318 l 1,10,-1
 65 488 l 1,11,-1
 153 488 l 1,6,-1
EndSplineSet
EndChar

StartChar: onequarter
Encoding: 188 188 145
Width: 1019
Flags: W
LayerCount: 2
Fore
SplineSet
311 0 m 1,0,-1
 616 601 l 1,1,-1
 699 601 l 1,2,-1
 394 0 l 1,3,-1
 311 0 l 1,0,-1
838 421 m 1,4,-1
 745 154 l 1,5,-1
 854 154 l 1,6,-1
 854 286 l 1,7,-1
 930 286 l 1,8,-1
 930 154 l 1,9,-1
 986 154 l 1,10,-1
 986 90 l 1,11,-1
 930 90 l 1,12,-1
 930 0 l 1,13,-1
 853 0 l 1,14,-1
 853 90 l 1,15,-1
 682 90 l 1,16,-1
 662 132 l 1,17,-1
 766 421 l 1,18,-1
 838 421 l 1,4,-1
79 181 m 1,19,-1
 79 247 l 1,20,-1
 171 247 l 1,21,-1
 171 526 l 1,22,-1
 73 487 l 1,23,-1
 58 554 l 1,24,-1
 186 602 l 1,25,-1
 251 602 l 1,26,-1
 251 247 l 1,27,-1
 331 247 l 1,28,-1
 331 181 l 1,29,-1
 79 181 l 1,19,-1
EndSplineSet
EndChar

StartChar: onehalf
Encoding: 189 189 146
Width: 1011
Flags: W
LayerCount: 2
Fore
SplineSet
311 0 m 1,0,-1
 616 601 l 1,1,-1
 699 601 l 1,2,-1
 394 0 l 1,3,-1
 311 0 l 1,0,-1
795 365 m 0,4,5
 772 365 772 365 744.5 360 c 128,-1,6
 717 355 717 355 697 348 c 1,7,-1
 697 413 l 1,8,9
 722 420 722 420 748.5 424.5 c 128,-1,10
 775 429 775 429 795 429 c 0,11,12
 874 429 874 429 908.5 401 c 128,-1,13
 943 373 943 373 943 321 c 2,14,-1
 943 303 l 2,15,16
 943 269 943 269 930 239.5 c 128,-1,17
 917 210 917 210 880 170 c 2,18,-1
 783 66 l 1,19,-1
 944 66 l 1,20,-1
 944 0 l 1,21,-1
 688 0 l 1,22,-1
 688 60 l 1,23,-1
 836 230 l 2,24,25
 846 241 846 241 852 249.5 c 128,-1,26
 858 258 858 258 861.5 266 c 128,-1,27
 865 274 865 274 866 282.5 c 128,-1,28
 867 291 867 291 867 302 c 2,29,-1
 867 318 l 2,30,31
 867 342 867 342 851 353.5 c 128,-1,32
 835 365 835 365 795 365 c 0,4,5
79 181 m 1,33,-1
 79 247 l 1,34,-1
 171 247 l 1,35,-1
 171 526 l 1,36,-1
 73 487 l 1,37,-1
 58 554 l 1,38,-1
 186 602 l 1,39,-1
 251 602 l 1,40,-1
 251 247 l 1,41,-1
 331 247 l 1,42,-1
 331 181 l 1,43,-1
 79 181 l 1,33,-1
EndSplineSet
EndChar

StartChar: threequarters
Encoding: 190 190 147
Width: 1000
Flags: W
LayerCount: 2
Fore
SplineSet
292 0 m 1,0,-1
 597 601 l 1,1,-1
 680 601 l 1,2,-1
 375 0 l 1,3,-1
 292 0 l 1,0,-1
819 421 m 1,4,-1
 726 154 l 1,5,-1
 835 154 l 1,6,-1
 835 286 l 1,7,-1
 911 286 l 1,8,-1
 911 154 l 1,9,-1
 967 154 l 1,10,-1
 967 90 l 1,11,-1
 911 90 l 1,12,-1
 911 0 l 1,13,-1
 834 0 l 1,14,-1
 834 90 l 1,15,-1
 663 90 l 1,16,-1
 643 132 l 1,17,-1
 747 421 l 1,18,-1
 819 421 l 1,4,-1
169 549 m 0,19,20
 147 549 147 549 120.5 545.5 c 128,-1,21
 94 542 94 542 74 539 c 1,22,-1
 74 601 l 1,23,24
 99 605 99 605 124 607.5 c 128,-1,25
 149 610 149 610 169 610 c 0,26,27
 239 610 239 610 272.5 581 c 128,-1,28
 306 552 306 552 306 502 c 2,29,-1
 306 495 l 2,30,31
 306 462 306 462 292 440 c 128,-1,32
 278 418 278 418 246 403 c 1,33,34
 280 389 280 389 298 362.5 c 128,-1,35
 316 336 316 336 316 302 c 2,36,-1
 316 295 l 2,37,38
 316 241 316 241 279.5 207 c 128,-1,39
 243 173 243 173 171 173 c 0,40,41
 152 173 152 173 125.5 175.5 c 128,-1,42
 99 178 99 178 74 182 c 1,43,-1
 74 243 l 1,44,45
 94 240 94 240 122.5 237.5 c 128,-1,46
 151 235 151 235 173 235 c 0,47,48
 206 235 206 235 221.5 250 c 128,-1,49
 237 265 237 265 237 291 c 2,50,-1
 237 304 l 2,51,52
 237 336 237 336 220 352 c 128,-1,53
 203 368 203 368 161 368 c 2,54,-1
 103 368 l 1,55,-1
 103 427 l 1,56,-1
 161 427 l 2,57,58
 199 427 199 427 214 442 c 128,-1,59
 229 457 229 457 229 489 c 2,60,-1
 229 502 l 2,61,62
 229 527 229 527 215 538 c 128,-1,63
 201 549 201 549 169 549 c 0,19,20
EndSplineSet
EndChar

StartChar: Aring
Encoding: 197 197 154
Width: 536
Flags: W
LayerCount: 2
Fore
SplineSet
383 700 m 0,0,1
 383 667 383 667 369.5 645 c 128,-1,2
 356 623 356 623 333 612 c 1,3,-1
 521 0 l 1,4,-1
 429 0 l 1,5,-1
 386 152 l 1,6,-1
 145 152 l 1,7,-1
 102 0 l 1,8,-1
 15 0 l 1,9,-1
 202 613 l 1,10,11
 179 624 179 624 166 646 c 128,-1,12
 153 668 153 668 153 700 c 0,13,14
 153 751 153 751 184 775.5 c 128,-1,15
 215 800 215 800 268 800 c 0,16,17
 320 800 320 800 351.5 775.5 c 128,-1,18
 383 751 383 751 383 700 c 0,0,1
166 228 m 1,19,-1
 364 228 l 1,20,-1
 266 577 l 1,21,-1
 166 228 l 1,19,-1
318 700 m 256,22,23
 318 720 318 720 307 732.5 c 128,-1,24
 296 745 296 745 268 745 c 256,25,26
 240 745 240 745 229 732.5 c 128,-1,27
 218 720 218 720 218 700 c 256,28,29
 218 680 218 680 229 667.5 c 128,-1,30
 240 655 240 655 268 655 c 256,31,32
 296 655 296 655 307 667.5 c 128,-1,33
 318 680 318 680 318 700 c 256,22,23
EndSplineSet
EndChar

StartChar: AE
Encoding: 198 198 155
Width: 774
Flags: W
LayerCount: 2
Fore
SplineSet
364 0 m 1,0,-1
 364 152 l 1,1,-1
 170 152 l 1,2,-1
 104 0 l 1,3,-1
 15 0 l 1,4,-1
 308 655 l 1,5,-1
 709 655 l 1,6,-1
 709 578 l 1,7,-1
 449 578 l 1,8,-1
 449 371 l 1,9,-1
 689 371 l 1,10,-1
 689 295 l 1,11,-1
 449 295 l 1,12,-1
 449 77 l 1,13,-1
 709 77 l 1,14,-1
 709 0 l 1,15,-1
 364 0 l 1,0,-1
364 228 m 1,16,-1
 364 597 l 1,17,-1
 203 228 l 1,18,-1
 364 228 l 1,16,-1
EndSplineSet
EndChar

StartChar: Ccedilla
Encoding: 199 199 156
Width: 476
Flags: W
LayerCount: 2
Fore
SplineSet
349 -120 m 2,0,1
 349 -197 349 -197 254 -197 c 0,2,3
 242 -197 242 -197 230.5 -195.5 c 128,-1,4
 219 -194 219 -194 205 -192 c 1,5,-1
 205 -139 l 1,6,7
 216 -141 216 -141 224.5 -142 c 128,-1,8
 233 -143 233 -143 241 -143 c 0,9,10
 263 -143 263 -143 272.5 -136.5 c 128,-1,11
 282 -130 282 -130 282 -119 c 2,12,-1
 282 -106 l 1,13,14
 281 -91 281 -91 273 -85.5 c 128,-1,15
 265 -80 265 -80 248 -80 c 2,16,-1
 218 -80 l 1,17,-1
 218 -59 l 1,18,-1
 233 -9 l 1,19,20
 143 1 143 1 106.5 51 c 128,-1,21
 70 101 70 101 70 190 c 2,22,-1
 70 465 l 2,23,24
 70 567 70 567 118 617 c 128,-1,25
 166 667 166 667 283 667 c 0,26,27
 317 667 317 667 352.5 661.5 c 128,-1,28
 388 656 388 656 421 651 c 1,29,-1
 419 576 l 1,30,31
 394 581 394 581 357 586.5 c 128,-1,32
 320 592 320 592 283 592 c 0,33,34
 214 592 214 592 184.5 564.5 c 128,-1,35
 155 537 155 537 155 471 c 2,36,-1
 155 185 l 2,37,38
 155 120 155 120 184.5 92.5 c 128,-1,39
 214 65 214 65 283 65 c 0,40,41
 320 65 320 65 357 70.5 c 128,-1,42
 394 76 394 76 419 81 c 1,43,-1
 421 4 l 1,44,45
 391 -1 391 -1 359 -5.5 c 128,-1,46
 327 -10 327 -10 296 -12 c 1,47,-1
 287 -41 l 1,48,-1
 297 -41 l 2,49,50
 318 -41 318 -41 333.5 -58.5 c 128,-1,51
 349 -76 349 -76 349 -105 c 2,52,-1
 349 -120 l 2,0,1
EndSplineSet
EndChar

StartChar: Eth
Encoding: 208 208 165
Width: 571
Flags: W
LayerCount: 2
Fore
SplineSet
75 303 m 1,0,-1
 5 303 l 1,1,-1
 5 373 l 1,2,-1
 75 373 l 1,3,-1
 75 663 l 1,4,5
 109 665 109 665 154.5 666 c 128,-1,6
 200 667 200 667 258 667 c 0,7,8
 377 667 377 667 441.5 600 c 128,-1,9
 506 533 506 533 506 405 c 2,10,-1
 506 241 l 2,11,12
 506 119 506 119 442.5 53.5 c 128,-1,13
 379 -12 379 -12 253 -12 c 0,14,15
 202 -12 202 -12 162 -10.5 c 128,-1,16
 122 -9 122 -9 75 -6 c 1,17,-1
 75 303 l 1,0,-1
160 373 m 1,18,-1
 295 373 l 1,19,-1
 295 303 l 1,20,-1
 160 303 l 1,21,-1
 160 67 l 1,22,23
 218 61 218 61 253 61 c 0,24,25
 328 61 328 61 374.5 104.5 c 128,-1,26
 421 148 421 148 421 234 c 2,27,-1
 421 411 l 2,28,29
 421 504 421 504 376 549.5 c 128,-1,30
 331 595 331 595 253 595 c 0,31,32
 229 595 229 595 206 594.5 c 128,-1,33
 183 594 183 594 160 593 c 1,34,-1
 160 373 l 1,18,-1
EndSplineSet
EndChar

StartChar: multiply
Encoding: 215 215 172
Width: 520
Flags: W
LayerCount: 2
Fore
SplineSet
311 302 m 1,0,-1
 419 194 l 1,1,-1
 365 141 l 1,2,-1
 257 248 l 1,3,-1
 152 143 l 1,4,-1
 102 193 l 1,5,-1
 207 298 l 1,6,-1
 100 406 l 1,7,-1
 153 460 l 1,8,-1
 261 352 l 1,9,-1
 367 458 l 1,10,-1
 417 408 l 1,11,-1
 311 302 l 1,0,-1
EndSplineSet
EndChar

StartChar: Oslash
Encoding: 216 216 173
Width: 576
Flags: W
LayerCount: 2
Fore
SplineSet
35 -50 m 1,0,-1
 103 68 l 1,1,2
 86 94 86 94 78 128 c 128,-1,3
 70 162 70 162 70 203 c 2,4,-1
 70 452 l 2,5,6
 70 501 70 501 82.5 541 c 128,-1,7
 95 581 95 581 121 609 c 128,-1,8
 147 637 147 637 188.5 652 c 128,-1,9
 230 667 230 667 288 667 c 0,10,11
 368 667 368 667 418 638 c 1,12,-1
 456 705 l 1,13,-1
 541 705 l 1,14,-1
 474 585 l 1,15,16
 506 534 506 534 506 452 c 2,17,-1
 506 203 l 2,18,19
 506 153 506 153 493.5 113.5 c 128,-1,20
 481 74 481 74 455 46 c 128,-1,21
 429 18 429 18 387.5 3 c 128,-1,22
 346 -12 346 -12 288 -12 c 0,23,24
 247 -12 247 -12 215.5 -5 c 128,-1,25
 184 2 184 2 159 16 c 1,26,-1
 120 -50 l 1,27,-1
 35 -50 l 1,0,-1
155 194 m 2,28,29
 155 173 155 173 158 155 c 1,30,-1
 383 562 l 1,31,32
 350 592 350 592 288 592 c 0,33,34
 221 592 221 592 188 558.5 c 128,-1,35
 155 525 155 525 155 462 c 2,36,-1
 155 194 l 2,28,29
421 461 m 2,37,38
 421 480 421 480 418 497 c 1,39,-1
 194 91 l 1,40,41
 226 63 226 63 288 63 c 0,42,43
 354 63 354 63 387.5 96.5 c 128,-1,44
 421 130 421 130 421 194 c 2,45,-1
 421 461 l 2,37,38
EndSplineSet
EndChar

StartChar: Thorn
Encoding: 222 222 179
Width: 560
Flags: W
LayerCount: 2
Fore
SplineSet
75 0 m 1,0,-1
 75 655 l 1,1,-1
 160 655 l 1,2,-1
 160 533 l 1,3,4
 184 536 184 536 207 537.5 c 128,-1,5
 230 539 230 539 248 539 c 0,6,7
 368 539 368 539 423.5 491 c 128,-1,8
 479 443 479 443 479 357 c 2,9,-1
 479 333 l 2,10,11
 479 242 479 242 425 190 c 128,-1,12
 371 138 371 138 256 138 c 0,13,14
 234 138 234 138 211.5 139.5 c 128,-1,15
 189 141 189 141 160 146 c 1,16,-1
 160 0 l 1,17,-1
 75 0 l 1,0,-1
160 219 m 1,18,19
 194 214 194 214 214 212.5 c 128,-1,20
 234 211 234 211 252 211 c 0,21,22
 394 211 394 211 394 337 c 2,23,-1
 394 354 l 2,24,25
 394 410 394 410 359 439 c 128,-1,26
 324 468 324 468 246 468 c 0,27,28
 213 468 213 468 194.5 466.5 c 128,-1,29
 176 465 176 465 160 463 c 1,30,-1
 160 219 l 1,18,19
EndSplineSet
EndChar

StartChar: germandbls
Encoding: 223 223 180
Width: 486
Flags: W
LayerCount: 2
Fore
SplineSet
75 0 m 1,0,-1
 75 534 l 2,1,2
 75 618 75 618 112 656.5 c 128,-1,3
 149 695 149 695 237 695 c 0,4,5
 309 695 309 695 350 659 c 128,-1,6
 391 623 391 623 391 566 c 2,7,-1
 391 539 l 2,8,9
 391 507 391 507 377.5 485.5 c 128,-1,10
 364 464 364 464 348 446.5 c 128,-1,11
 332 429 332 429 318.5 413.5 c 128,-1,12
 305 398 305 398 305 379 c 2,13,-1
 305 364 l 2,14,15
 305 349 305 349 309.5 340 c 128,-1,16
 314 331 314 331 327 323 c 2,17,-1
 374 295 l 1,18,19
 421 272 421 272 441 242 c 128,-1,20
 461 212 461 212 461 170 c 2,21,-1
 461 137 l 2,22,23
 461 56 461 56 430 22 c 128,-1,24
 399 -12 399 -12 321 -12 c 0,25,26
 305 -12 305 -12 280.5 -8 c 128,-1,27
 256 -4 256 -4 223 3 c 1,28,-1
 225 78 l 1,29,30
 251 72 251 72 276.5 67.5 c 128,-1,31
 302 63 302 63 321 63 c 0,32,33
 347 63 347 63 360.5 78.5 c 128,-1,34
 374 94 374 94 374 129 c 2,35,-1
 374 160 l 2,36,37
 374 183 374 183 365.5 196.5 c 128,-1,38
 357 210 357 210 336 222 c 2,39,-1
 288 249 l 2,40,41
 250 270 250 270 236.5 293.5 c 128,-1,42
 223 317 223 317 223 357 c 2,43,-1
 223 376 l 2,44,45
 223 408 223 408 236 427.5 c 128,-1,46
 249 447 249 447 264.5 462.5 c 128,-1,47
 280 478 280 478 293 495 c 128,-1,48
 306 512 306 512 306 538 c 2,49,-1
 306 566 l 2,50,51
 306 592 306 592 287.5 607.5 c 128,-1,52
 269 623 269 623 231 623 c 256,53,54
 193 623 193 623 176.5 605.5 c 128,-1,55
 160 588 160 588 160 544 c 2,56,-1
 160 0 l 1,57,-1
 75 0 l 1,0,-1
EndSplineSet
EndChar

StartChar: ae
Encoding: 230 230 187
Width: 725
Flags: W
LayerCount: 2
Fore
SplineSet
394 218 m 1,0,-1
 394 159 l 2,1,2
 394 108 394 108 419.5 85.5 c 128,-1,3
 445 63 445 63 498 63 c 0,4,5
 514 63 514 63 533.5 65 c 128,-1,6
 553 67 553 67 572 69.5 c 128,-1,7
 591 72 591 72 609 75 c 128,-1,8
 627 78 627 78 640 81 c 1,9,-1
 636 6 l 1,10,11
 603 0 603 0 565 -6 c 128,-1,12
 527 -12 527 -12 498 -12 c 0,13,14
 422 -12 422 -12 383 14 c 128,-1,15
 344 40 344 40 330 90 c 1,16,17
 299 41 299 41 263 14.5 c 128,-1,18
 227 -12 227 -12 182 -12 c 0,19,20
 124 -12 124 -12 89.5 28 c 128,-1,21
 55 68 55 68 55 137 c 2,22,-1
 55 165 l 2,23,24
 55 195 55 195 65 220.5 c 128,-1,25
 75 246 75 246 94.5 265 c 128,-1,26
 114 284 114 284 142 295 c 128,-1,27
 170 306 170 306 206 306 c 0,28,29
 228 306 228 306 257 302 c 128,-1,30
 286 298 286 298 309 293 c 1,31,-1
 309 351 l 2,32,33
 309 393 309 393 290 411.5 c 128,-1,34
 271 430 271 430 229 430 c 0,35,36
 214 430 214 430 196 428.5 c 128,-1,37
 178 427 178 427 160 424.5 c 128,-1,38
 142 422 142 422 124.5 419.5 c 128,-1,39
 107 417 107 417 94 415 c 1,40,-1
 94 485 l 1,41,42
 127 490 127 490 165 495 c 128,-1,43
 203 500 203 500 229 500 c 0,44,45
 324 500 324 500 360 443 c 1,46,47
 397 500 397 500 482 500 c 0,48,49
 566 500 566 500 610.5 454.5 c 128,-1,50
 655 409 655 409 655 321 c 2,51,-1
 655 218 l 1,52,-1
 394 218 l 1,0,-1
309 231 m 1,53,54
 289 235 289 235 266 236.5 c 128,-1,55
 243 238 243 238 227 238 c 0,56,57
 185 238 185 238 163 215.5 c 128,-1,58
 141 193 141 193 141 154 c 2,59,-1
 141 143 l 2,60,61
 141 105 141 105 158 84.5 c 128,-1,62
 175 64 175 64 201 64 c 256,63,64
 227 64 227 64 256 87 c 128,-1,65
 285 110 285 110 309 154 c 1,66,-1
 309 231 l 1,53,54
394 288 m 1,67,-1
 570 288 l 1,68,-1
 570 331 l 2,69,70
 570 379 570 379 546.5 404 c 128,-1,71
 523 429 523 429 482 429 c 0,72,73
 443 429 443 429 419.5 406.5 c 128,-1,74
 396 384 396 384 394 339 c 1,75,-1
 394 288 l 1,67,-1
EndSplineSet
EndChar

StartChar: ccedilla
Encoding: 231 231 188
Width: 401
Flags: W
LayerCount: 2
Fore
SplineSet
304 -120 m 2,0,1
 304 -197 304 -197 209 -197 c 0,2,3
 197 -197 197 -197 185.5 -195.5 c 128,-1,4
 174 -194 174 -194 160 -192 c 1,5,-1
 160 -139 l 1,6,7
 171 -141 171 -141 179.5 -142 c 128,-1,8
 188 -143 188 -143 196 -143 c 0,9,10
 218 -143 218 -143 227.5 -136.5 c 128,-1,11
 237 -130 237 -130 237 -119 c 2,12,-1
 237 -106 l 1,13,14
 236 -91 236 -91 228 -85.5 c 128,-1,15
 220 -80 220 -80 203 -80 c 2,16,-1
 173 -80 l 1,17,-1
 173 -59 l 1,18,-1
 189 -5 l 1,19,20
 128 9 128 9 99 53 c 128,-1,21
 70 97 70 97 70 170 c 2,22,-1
 70 318 l 2,23,24
 70 406 70 406 113.5 453 c 128,-1,25
 157 500 157 500 251 500 c 0,26,27
 277 500 277 500 296.5 497.5 c 128,-1,28
 316 495 316 495 349 490 c 1,29,-1
 347 415 l 1,30,31
 321 420 321 420 300.5 422.5 c 128,-1,32
 280 425 280 425 251 425 c 0,33,34
 203 425 203 425 179 399 c 128,-1,35
 155 373 155 373 155 325 c 2,36,-1
 155 164 l 2,37,38
 155 113 155 113 180.5 88 c 128,-1,39
 206 63 206 63 251 63 c 0,40,41
 280 63 280 63 300.5 65.5 c 128,-1,42
 321 68 321 68 347 73 c 1,43,-1
 349 -2 l 1,44,45
 316 -7 316 -7 296.5 -9.5 c 128,-1,46
 277 -12 277 -12 251 -12 c 1,47,-1
 242 -41 l 1,48,-1
 252 -41 l 2,49,50
 273 -41 273 -41 288.5 -58.5 c 128,-1,51
 304 -76 304 -76 304 -105 c 2,52,-1
 304 -120 l 2,0,1
EndSplineSet
EndChar

StartChar: eth
Encoding: 240 240 197
Width: 497
Flags: W
LayerCount: 2
Fore
SplineSet
115 695 m 1,0,1
 255 695 255 695 333 616 c 1,2,-1
 432 645 l 1,3,-1
 432 579 l 1,4,-1
 373 562 l 1,5,6
 396 520 396 520 408.5 464.5 c 128,-1,7
 421 409 421 409 421 340 c 2,8,-1
 421 170 l 2,9,10
 421 82 421 82 377.5 35 c 128,-1,11
 334 -12 334 -12 248 -12 c 0,12,13
 157 -12 157 -12 116 28.5 c 128,-1,14
 75 69 75 69 75 157 c 2,15,-1
 75 272 l 2,16,17
 75 356 75 356 110.5 397.5 c 128,-1,18
 146 439 146 439 208 439 c 0,19,20
 242 439 242 439 274.5 420.5 c 128,-1,21
 307 402 307 402 336 361 c 1,22,-1
 336 386 l 2,23,24
 336 433 336 433 325 471 c 128,-1,25
 314 509 314 509 294 539 c 1,26,-1
 177 505 l 1,27,-1
 177 571 l 1,28,-1
 245 591 l 1,29,30
 190 631 190 631 115 631 c 1,31,-1
 115 695 l 1,0,1
225 363 m 0,32,33
 196 363 196 363 178 339 c 128,-1,34
 160 315 160 315 160 260 c 2,35,-1
 160 148 l 2,36,37
 160 59 160 59 248 59 c 256,38,39
 336 59 336 59 336 148 c 2,40,-1
 336 281 l 1,41,42
 311 323 311 323 281.5 343 c 128,-1,43
 252 363 252 363 225 363 c 0,32,33
EndSplineSet
EndChar

StartChar: divide
Encoding: 247 247 204
Width: 520
Flags: W
LayerCount: 2
Fore
SplineSet
83 265 m 1,0,-1
 83 335 l 1,1,-1
 437 335 l 1,2,-1
 437 265 l 1,3,-1
 83 265 l 1,0,-1
309 154 m 2,4,5
 309 134 309 134 297 122.5 c 128,-1,6
 285 111 285 111 260 111 c 0,7,8
 236 111 236 111 224 122.5 c 128,-1,9
 212 134 212 134 212 154 c 2,10,-1
 212 171 l 2,11,12
 212 191 212 191 224 203 c 128,-1,13
 236 215 236 215 260 215 c 0,14,15
 285 215 285 215 297 203 c 128,-1,16
 309 191 309 191 309 171 c 2,17,-1
 309 154 l 2,4,5
309 428 m 2,18,19
 309 408 309 408 297 396.5 c 128,-1,20
 285 385 285 385 260 385 c 0,21,22
 236 385 236 385 224 396.5 c 128,-1,23
 212 408 212 408 212 428 c 2,24,-1
 212 445 l 2,25,26
 212 465 212 465 224 477 c 128,-1,27
 236 489 236 489 260 489 c 0,28,29
 285 489 285 489 297 477 c 128,-1,30
 309 465 309 465 309 445 c 2,31,-1
 309 428 l 2,18,19
EndSplineSet
EndChar

StartChar: oslash
Encoding: 248 248 205
Width: 492
Flags: W
LayerCount: 2
Fore
SplineSet
6 -51 m 1,0,-1
 88 72 l 1,1,2
 70 112 70 112 70 170 c 2,3,-1
 70 318 l 2,4,5
 70 403 70 403 112 451.5 c 128,-1,6
 154 500 154 500 246 500 c 0,7,8
 312 500 312 500 354 472 c 1,9,-1
 398 538 l 1,10,-1
 486 538 l 1,11,-1
 404 414 l 1,12,13
 422 373 422 373 422 318 c 2,14,-1
 422 170 l 2,15,16
 422 85 422 85 380 36.5 c 128,-1,17
 338 -12 338 -12 246 -12 c 0,18,19
 212 -12 212 -12 185 -5 c 128,-1,20
 158 2 158 2 138 15 c 1,21,-1
 94 -51 l 1,22,-1
 6 -51 l 1,0,-1
155 158 m 1,23,-1
 315 400 l 1,24,25
 292 429 292 429 246 429 c 0,26,27
 203 429 203 429 179 402.5 c 128,-1,28
 155 376 155 376 155 325 c 2,29,-1
 155 158 l 1,23,-1
337 326 m 1,30,-1
 177 87 l 1,31,32
 201 59 201 59 246 59 c 0,33,34
 289 59 289 59 313 85.5 c 128,-1,35
 337 112 337 112 337 163 c 2,36,-1
 337 326 l 1,30,-1
EndSplineSet
EndChar

StartChar: thorn
Encoding: 254 254 211
Width: 490
Flags: W
LayerCount: 2
Fore
SplineSet
75 -185 m 1,0,-1
 75 683 l 1,1,-1
 160 683 l 1,2,-1
 160 424 l 1,3,4
 186 461 186 461 217.5 480.5 c 128,-1,5
 249 500 249 500 287 500 c 0,6,7
 350 500 350 500 385 458 c 128,-1,8
 420 416 420 416 420 333 c 2,9,-1
 420 155 l 2,10,11
 420 76 420 76 379.5 32 c 128,-1,12
 339 -12 339 -12 270 -12 c 0,13,14
 242 -12 242 -12 212 -1 c 128,-1,15
 182 10 182 10 160 23 c 1,16,-1
 160 -185 l 1,17,-1
 75 -185 l 1,0,-1
270 424 m 256,18,19
 241 424 241 424 211.5 403 c 128,-1,20
 182 382 182 382 160 344 c 1,21,-1
 160 99 l 1,22,23
 182 82 182 82 207 72.5 c 128,-1,24
 232 63 232 63 253 63 c 0,25,26
 335 63 335 63 335 167 c 2,27,-1
 335 321 l 2,28,29
 335 378 335 378 317 401 c 128,-1,30
 299 424 299 424 270 424 c 256,18,19
EndSplineSet
EndChar

StartChar: hbar
Encoding: 295 295 213
Width: 496
Flags: W
LayerCount: 2
Fore
SplineSet
75 0 m 1,0,-1
 75 553 l 1,1,-1
 5 553 l 1,2,-1
 5 623 l 1,3,-1
 75 623 l 1,4,-1
 75 683 l 1,5,-1
 160 683 l 1,6,-1
 160 623 l 1,7,-1
 280 623 l 1,8,-1
 280 553 l 1,9,-1
 160 553 l 1,10,-1
 160 423 l 1,11,12
 186 460 186 460 218 480 c 128,-1,13
 250 500 250 500 288 500 c 0,14,15
 352 500 352 500 386.5 457 c 128,-1,16
 421 414 421 414 421 333 c 2,17,-1
 421 0 l 1,18,-1
 336 0 l 1,19,-1
 336 321 l 2,20,21
 336 376 336 376 318 398.5 c 128,-1,22
 300 421 300 421 271 421 c 256,23,24
 242 421 242 421 212 399 c 128,-1,25
 182 377 182 377 160 339 c 1,26,-1
 160 0 l 1,27,-1
 75 0 l 1,0,-1
EndSplineSet
EndChar

StartChar: dotlessi
Encoding: 305 305 216
Width: 245
Flags: W
LayerCount: 2
Fore
SplineSet
80 0 m 1,0,-1
 80 488 l 1,1,-1
 165 488 l 1,2,-1
 165 0 l 1,3,-1
 80 0 l 1,0,-1
EndSplineSet
EndChar

StartChar: jcircumflex
Encoding: 309 309 220
Width: 235
Flags: W
LayerCount: 2
Fore
SplineSet
75 488 m 1,0,-1
 160 488 l 1,1,-1
 160 -48 l 2,2,3
 160 -123 160 -123 123.5 -160 c 128,-1,4
 87 -197 87 -197 7 -197 c 0,5,6
 -10 -197 -10 -197 -28 -195 c 128,-1,7
 -46 -193 -46 -193 -53 -191 c 1,8,-1
 -53 -120 l 1,9,10
 -45 -121 -45 -121 -26.5 -122.5 c 128,-1,11
 -8 -124 -8 -124 11 -124 c 0,12,13
 75 -124 75 -124 75 -53 c 2,14,-1
 75 488 l 1,0,-1
-11 546 m 1,15,-1
 -11 616 l 1,16,-1
 119 690 l 1,17,-1
 249 616 l 1,18,-1
 249 546 l 1,19,-1
 119 611 l 1,20,-1
 -11 546 l 1,15,-1
EndSplineSet
EndChar

StartChar: kcommaaccent
Encoding: 311 311 221
Width: 452
Flags: W
LayerCount: 2
Fore
SplineSet
281 -118 m 2,0,1
 281 -132 281 -132 279 -142.5 c 128,-1,2
 277 -153 277 -153 273 -165 c 2,3,-1
 251 -231 l 1,4,-1
 200 -231 l 1,5,-1
 217 -155 l 1,6,7
 201 -150 201 -150 194.5 -141.5 c 128,-1,8
 188 -133 188 -133 188 -117 c 2,9,-1
 188 -92 l 2,10,11
 188 -76 188 -76 200 -66 c 128,-1,12
 212 -56 212 -56 232 -56 c 0,13,14
 258 -56 258 -56 269.5 -66 c 128,-1,15
 281 -76 281 -76 281 -92 c 2,16,-1
 281 -118 l 2,0,1
75 0 m 1,17,-1
 75 683 l 1,18,-1
 160 683 l 1,19,-1
 160 274 l 1,20,-1
 320 488 l 1,21,-1
 415 488 l 1,22,-1
 249 274 l 1,23,-1
 427 0 l 1,24,-1
 325 0 l 1,25,-1
 160 262 l 1,26,-1
 160 0 l 1,27,-1
 75 0 l 1,17,-1
EndSplineSet
EndChar

StartChar: kgreenlandic
Encoding: 312 312 222
Width: 452
Flags: W
LayerCount: 2
Fore
SplineSet
75 0 m 1,0,-1
 75 488 l 1,1,-1
 160 488 l 1,2,-1
 160 256 l 1,3,-1
 320 488 l 1,4,-1
 415 488 l 1,5,-1
 249 255 l 1,6,-1
 427 0 l 1,7,-1
 325 0 l 1,8,-1
 160 244 l 1,9,-1
 160 0 l 1,10,-1
 75 0 l 1,0,-1
EndSplineSet
EndChar

StartChar: Lslash
Encoding: 321 321 225
Width: 445
Flags: W
LayerCount: 2
Fore
SplineSet
5 344 m 1,0,-1
 75 363 l 1,1,-1
 75 655 l 1,2,-1
 160 655 l 1,3,-1
 160 387 l 1,4,-1
 290 424 l 1,5,-1
 290 348 l 1,6,-1
 160 311 l 1,7,-1
 160 75 l 1,8,-1
 420 75 l 1,9,-1
 420 0 l 1,10,-1
 75 0 l 1,11,-1
 75 287 l 1,12,-1
 5 268 l 1,13,-1
 5 344 l 1,0,-1
EndSplineSet
EndChar

StartChar: lslash
Encoding: 322 322 226
Width: 235
Flags: W
LayerCount: 2
Fore
SplineSet
75 0 m 1,0,-1
 75 355 l 1,1,-1
 -15 328 l 1,2,-1
 -15 398 l 1,3,-1
 75 425 l 1,4,-1
 75 683 l 1,5,-1
 160 683 l 1,6,-1
 160 450 l 1,7,-1
 250 478 l 1,8,-1
 250 408 l 1,9,-1
 160 380 l 1,10,-1
 160 0 l 1,11,-1
 75 0 l 1,0,-1
EndSplineSet
EndChar

StartChar: OE
Encoding: 338 338 229
Width: 771
Flags: W
LayerCount: 2
Fore
SplineSet
370 0 m 1,0,1
 329 -12 329 -12 278 -12 c 0,2,3
 172 -12 172 -12 121 44 c 128,-1,4
 70 100 70 100 70 203 c 2,5,-1
 70 452 l 2,6,7
 70 557 70 557 122 612 c 128,-1,8
 174 667 174 667 274 667 c 0,9,10
 328 667 328 667 370 655 c 1,11,-1
 706 655 l 1,12,-1
 706 578 l 1,13,-1
 446 578 l 1,14,-1
 446 371 l 1,15,-1
 686 371 l 1,16,-1
 686 295 l 1,17,-1
 446 295 l 1,18,-1
 446 77 l 1,19,-1
 706 77 l 1,20,-1
 706 0 l 1,21,-1
 370 0 l 1,0,1
283 63 m 0,22,23
 309 63 309 63 327.5 64.5 c 128,-1,24
 346 66 346 66 361 71 c 1,25,-1
 361 579 l 1,26,27
 331 592 331 592 283 592 c 0,28,29
 221 592 221 592 188 559 c 128,-1,30
 155 526 155 526 155 462 c 2,31,-1
 155 194 l 2,32,33
 155 131 155 131 187.5 97 c 128,-1,34
 220 63 220 63 283 63 c 0,22,23
EndSplineSet
EndChar

StartChar: oe
Encoding: 339 339 230
Width: 743
Flags: W
LayerCount: 2
Fore
SplineSet
422 218 m 1,0,-1
 422 159 l 2,1,2
 422 108 422 108 447 85.5 c 128,-1,3
 472 63 472 63 526 63 c 0,4,5
 542 63 542 63 561.5 65 c 128,-1,6
 581 67 581 67 600 69.5 c 128,-1,7
 619 72 619 72 637 75 c 128,-1,8
 655 78 655 78 668 81 c 1,9,-1
 664 6 l 1,10,11
 631 0 631 0 593 -6 c 128,-1,12
 555 -12 555 -12 526 -12 c 0,13,14
 472 -12 472 -12 436.5 3.5 c 128,-1,15
 401 19 401 19 378 48 c 1,16,17
 357 20 357 20 324.5 4 c 128,-1,18
 292 -12 292 -12 246 -12 c 0,19,20
 154 -12 154 -12 112 37 c 128,-1,21
 70 86 70 86 70 170 c 2,22,-1
 70 318 l 2,23,24
 70 402 70 402 111 451 c 128,-1,25
 152 500 152 500 244 500 c 0,26,27
 290 500 290 500 323 484 c 128,-1,28
 356 468 356 468 378 440 c 1,29,30
 399 468 399 468 432.5 484 c 128,-1,31
 466 500 466 500 512 500 c 0,32,33
 597 500 597 500 640 453 c 128,-1,34
 683 406 683 406 683 321 c 2,35,-1
 683 218 l 1,36,-1
 422 218 l 1,0,-1
337 327 m 2,37,38
 337 378 337 378 312.5 403.5 c 128,-1,39
 288 429 288 429 246 429 c 0,40,41
 203 429 203 429 179 402.5 c 128,-1,42
 155 376 155 376 155 325 c 2,43,-1
 155 163 l 2,44,45
 155 112 155 112 179 85.5 c 128,-1,46
 203 59 203 59 246 59 c 0,47,48
 288 59 288 59 311.5 84 c 128,-1,49
 335 109 335 109 337 158 c 1,50,-1
 337 327 l 2,37,38
422 288 m 1,51,-1
 598 288 l 1,52,-1
 598 331 l 2,53,54
 598 379 598 379 574.5 404 c 128,-1,55
 551 429 551 429 510 429 c 256,56,57
 469 429 469 429 445.5 404.5 c 128,-1,58
 422 380 422 380 422 332 c 2,59,-1
 422 288 l 1,51,-1
EndSplineSet
EndChar

StartChar: Rcommaaccent
Encoding: 342 342 232
Width: 548
Flags: W
LayerCount: 2
Fore
SplineSet
319 -118 m 2,0,1
 319 -132 319 -132 317 -142.5 c 128,-1,2
 315 -153 315 -153 311 -165 c 2,3,-1
 289 -231 l 1,4,-1
 238 -231 l 1,5,-1
 255 -155 l 1,6,7
 239 -150 239 -150 232.5 -141.5 c 128,-1,8
 226 -133 226 -133 226 -117 c 2,9,-1
 226 -92 l 2,10,11
 226 -76 226 -76 238 -66 c 128,-1,12
 250 -56 250 -56 270 -56 c 0,13,14
 296 -56 296 -56 307.5 -66 c 128,-1,15
 319 -76 319 -76 319 -92 c 2,16,-1
 319 -118 l 2,0,1
248 667 m 0,17,18
 309 667 309 667 352.5 654.5 c 128,-1,19
 396 642 396 642 423.5 619.5 c 128,-1,20
 451 597 451 597 464 565 c 128,-1,21
 477 533 477 533 477 493 c 2,22,-1
 477 467 l 2,23,24
 477 440 477 440 468.5 414 c 128,-1,25
 460 388 460 388 444.5 365 c 128,-1,26
 429 342 429 342 406.5 324 c 128,-1,27
 384 306 384 306 356 296 c 1,28,-1
 523 0 l 1,29,-1
 428 0 l 1,30,-1
 270 280 l 1,31,-1
 208 280 l 2,32,33
 187 280 187 280 160 282 c 1,34,-1
 160 0 l 1,35,-1
 75 0 l 1,36,-1
 75 663 l 1,37,38
 117 665 117 665 161 666 c 128,-1,39
 205 667 205 667 248 667 c 0,17,18
246 596 m 0,40,41
 229 596 229 596 204.5 595.5 c 128,-1,42
 180 595 180 595 160 594 c 1,43,-1
 160 358 l 1,44,45
 194 356 194 356 213 355 c 128,-1,46
 232 354 232 354 249 354 c 0,47,48
 326 354 326 354 359 384.5 c 128,-1,49
 392 415 392 415 392 469 c 2,50,-1
 392 488 l 2,51,52
 392 542 392 542 358.5 569 c 128,-1,53
 325 596 325 596 246 596 c 0,40,41
EndSplineSet
EndChar

StartChar: rcommaaccent
Encoding: 343 343 233
Width: 345
Flags: W
LayerCount: 2
Fore
SplineSet
166 -118 m 2,0,1
 166 -132 166 -132 164 -142.5 c 128,-1,2
 162 -153 162 -153 158 -165 c 2,3,-1
 136 -231 l 1,4,-1
 85 -231 l 1,5,-1
 102 -155 l 1,6,7
 86 -150 86 -150 79.5 -141.5 c 128,-1,8
 73 -133 73 -133 73 -117 c 2,9,-1
 73 -92 l 2,10,11
 73 -76 73 -76 85 -66 c 128,-1,12
 97 -56 97 -56 117 -56 c 0,13,14
 143 -56 143 -56 154.5 -66 c 128,-1,15
 166 -76 166 -76 166 -92 c 2,16,-1
 166 -118 l 2,0,1
75 0 m 1,17,-1
 75 488 l 1,18,-1
 155 488 l 1,19,-1
 155 415 l 1,20,21
 181 456 181 456 215 478 c 128,-1,22
 249 500 249 500 288 500 c 0,23,24
 302 500 302 500 310 498 c 1,25,-1
 310 402 l 1,26,27
 302 404 302 404 293.5 404.5 c 128,-1,28
 285 405 285 405 271 405 c 0,29,30
 239 405 239 405 210.5 388.5 c 128,-1,31
 182 372 182 372 160 335 c 1,32,-1
 160 0 l 1,33,-1
 75 0 l 1,17,-1
EndSplineSet
EndChar

StartChar: dotlessj
Encoding: 567 567 236
Width: 235
Flags: W
LayerCount: 2
Fore
SplineSet
75 488 m 1,0,-1
 160 488 l 1,1,-1
 160 -48 l 2,2,3
 160 -123 160 -123 123.5 -160 c 128,-1,4
 87 -197 87 -197 7 -197 c 0,5,6
 -10 -197 -10 -197 -28 -195 c 128,-1,7
 -46 -193 -46 -193 -53 -191 c 1,8,-1
 -53 -120 l 1,9,10
 -45 -121 -45 -121 -26.5 -122.5 c 128,-1,11
 -8 -124 -8 -124 11 -124 c 0,12,13
 75 -124 75 -124 75 -53 c 2,14,-1
 75 488 l 1,0,-1
EndSplineSet
EndChar

StartChar: circumflex
Encoding: 710 710 237
Width: 460
Flags: W
LayerCount: 2
Fore
SplineSet
100 546 m 1,0,-1
 100 616 l 1,1,-1
 230 690 l 1,2,-1
 360 616 l 1,3,-1
 360 546 l 1,4,-1
 230 611 l 1,5,-1
 100 546 l 1,0,-1
EndSplineSet
EndChar

StartChar: caron
Encoding: 711 711 238
Width: 460
Flags: W
LayerCount: 2
Fore
SplineSet
230 625 m 1,0,-1
 360 690 l 1,1,-1
 360 620 l 1,2,-1
 230 546 l 1,3,-1
 100 620 l 1,4,-1
 100 690 l 1,5,-1
 230 625 l 1,0,-1
EndSplineSet
EndChar

StartChar: ring
Encoding: 730 730 239
Width: 380
Flags: W
LayerCount: 2
Fore
SplineSet
305 625 m 256,0,1
 305 574 305 574 274 549.5 c 128,-1,2
 243 525 243 525 190 525 c 0,3,4
 138 525 138 525 106.5 549.5 c 128,-1,5
 75 574 75 574 75 625 c 256,6,7
 75 676 75 676 106 700.5 c 128,-1,8
 137 725 137 725 190 725 c 0,9,10
 242 725 242 725 273.5 700.5 c 128,-1,11
 305 676 305 676 305 625 c 256,0,1
240 625 m 256,12,13
 240 645 240 645 229 657.5 c 128,-1,14
 218 670 218 670 190 670 c 256,15,16
 162 670 162 670 151 657.5 c 128,-1,17
 140 645 140 645 140 625 c 256,18,19
 140 605 140 605 151 592.5 c 128,-1,20
 162 580 162 580 190 580 c 256,21,22
 218 580 218 580 229 592.5 c 128,-1,23
 240 605 240 605 240 625 c 256,12,13
EndSplineSet
EndChar

StartChar: tilde
Encoding: 732 732 240
Width: 460
Flags: W
LayerCount: 2
Fore
SplineSet
360 615 m 1,0,1
 352 608 352 608 331 596.5 c 128,-1,2
 310 585 310 585 280 585 c 0,3,4
 265 585 265 585 252.5 589 c 128,-1,5
 240 593 240 593 228 597.5 c 128,-1,6
 216 602 216 602 204 606 c 128,-1,7
 192 610 192 610 178 610 c 0,8,9
 169 610 169 610 158 607.5 c 128,-1,10
 147 605 147 605 135.5 601 c 128,-1,11
 124 597 124 597 114.5 592.5 c 128,-1,12
 105 588 105 588 100 585 c 1,13,-1
 100 655 l 1,14,15
 106 661 106 661 128.5 673 c 128,-1,16
 151 685 151 685 180 685 c 0,17,18
 199 685 199 685 212.5 681 c 128,-1,19
 226 677 226 677 237 672.5 c 128,-1,20
 248 668 248 668 258.5 664 c 128,-1,21
 269 660 269 660 282 660 c 0,22,23
 291 660 291 660 303 663 c 128,-1,24
 315 666 315 666 326.5 670 c 128,-1,25
 338 674 338 674 347 678 c 128,-1,26
 356 682 356 682 360 685 c 1,27,-1
 360 615 l 1,0,1
EndSplineSet
EndChar

StartChar: dotaccentcmb
Encoding: 775 775 241
Width: 251
Flags: W
LayerCount: 2
Fore
SplineSet
181 754 m 2,0,1
 181 709 181 709 125 709 c 0,2,3
 70 709 70 709 70 754 c 2,4,-1
 70 783 l 2,5,6
 70 829 70 829 125 829 c 0,7,8
 181 829 181 829 181 783 c 2,9,-1
 181 754 l 2,0,1
EndSplineSet
EndChar

StartChar: endash
Encoding: 8211 8211 242
Width: 610
Flags: W
LayerCount: 2
Fore
SplineSet
65 263 m 1,0,-1
 65 328 l 1,1,-1
 545 328 l 1,2,-1
 545 263 l 1,3,-1
 65 263 l 1,0,-1
EndSplineSet
EndChar

StartChar: emdash
Encoding: 8212 8212 243
Width: 710
Flags: W
LayerCount: 2
Fore
SplineSet
65 263 m 1,0,-1
 65 328 l 1,1,-1
 645 328 l 1,2,-1
 645 263 l 1,3,-1
 65 263 l 1,0,-1
EndSplineSet
EndChar

StartChar: quotesinglbase
Encoding: 8218 8218 246
Width: 217
Flags: W
LayerCount: 2
Fore
SplineSet
162 31 m 2,0,1
 162 3 162 3 155 -19 c 2,2,-1
 125 -108 l 1,3,-1
 66 -108 l 1,4,-1
 89 -9 l 1,5,6
 55 -1 55 -1 55 33 c 2,7,-1
 55 61 l 2,8,9
 55 105 55 105 108 105 c 0,10,11
 162 105 162 105 162 61 c 2,12,-1
 162 31 l 2,0,1
EndSplineSet
EndChar

StartChar: bullet
Encoding: 8226 8226 250
Width: 235
Flags: W
LayerCount: 2
Fore
SplineSet
180 251 m 2,0,1
 180 226 180 226 163.5 213 c 128,-1,2
 147 200 147 200 117 200 c 0,3,4
 88 200 88 200 71.5 213 c 128,-1,5
 55 226 55 226 55 251 c 2,6,-1
 55 284 l 2,7,8
 55 309 55 309 71.5 322 c 128,-1,9
 88 335 88 335 117 335 c 0,10,11
 147 335 147 335 163.5 322 c 128,-1,12
 180 309 180 309 180 284 c 2,13,-1
 180 251 l 2,0,1
EndSplineSet
EndChar

StartChar: guilsinglleft
Encoding: 8249 8249 251
Width: 318
Flags: W
LayerCount: 2
Fore
SplineSet
253 488 m 1,0,-1
 160 318 l 1,1,-1
 253 148 l 1,2,-1
 165 148 l 1,3,-1
 65 318 l 1,4,-1
 165 488 l 1,5,-1
 253 488 l 1,0,-1
EndSplineSet
EndChar

StartChar: guilsinglright
Encoding: 8250 8250 252
Width: 318
Flags: W
LayerCount: 2
Fore
SplineSet
153 488 m 1,0,-1
 253 318 l 1,1,-1
 153 148 l 1,2,-1
 65 148 l 1,3,-1
 158 318 l 1,4,-1
 65 488 l 1,5,-1
 153 488 l 1,0,-1
EndSplineSet
EndChar

StartChar: Euro
Encoding: 8364 8364 253
Width: 520
Flags: W
LayerCount: 2
Fore
SplineSet
215 326 m 1,0,-1
 215 264 l 1,1,-1
 397 264 l 1,2,-1
 382 194 l 1,3,-1
 215 194 l 1,4,-1
 215 183 l 2,5,6
 215 119 215 119 241.5 91 c 128,-1,7
 268 63 268 63 328 63 c 0,8,9
 365 63 365 63 401.5 68.5 c 128,-1,10
 438 74 438 74 464 79 c 1,11,-1
 466 4 l 1,12,13
 433 -2 433 -2 397.5 -7 c 128,-1,14
 362 -12 362 -12 328 -12 c 0,15,16
 274 -12 274 -12 236 0.5 c 128,-1,17
 198 13 198 13 174.5 38.5 c 128,-1,18
 151 64 151 64 140.5 102 c 128,-1,19
 130 140 130 140 130 190 c 2,20,-1
 130 194 l 1,21,-1
 47 194 l 1,22,-1
 62 264 l 1,23,-1
 130 264 l 1,24,-1
 130 326 l 1,25,-1
 53 326 l 1,26,-1
 68 396 l 1,27,-1
 130 396 l 1,28,-1
 130 411 l 2,29,30
 130 513 130 513 175.5 563 c 128,-1,31
 221 613 221 613 328 613 c 0,32,33
 362 613 362 613 397.5 608 c 128,-1,34
 433 603 433 603 466 597 c 1,35,-1
 464 524 l 1,36,37
 438 529 438 529 401.5 534.5 c 128,-1,38
 365 540 365 540 328 540 c 0,39,40
 268 540 268 540 241.5 512 c 128,-1,41
 215 484 215 484 215 419 c 2,42,-1
 215 396 l 1,43,-1
 424 396 l 1,44,-1
 409 326 l 1,45,-1
 215 326 l 1,0,-1
EndSplineSet
EndChar

StartChar: commaaccent
Encoding: 63171 63171 254
Width: 300
Flags: W
LayerCount: 2
Fore
SplineSet
181 25 m 2,0,1
 181 11 181 11 179 0.5 c 128,-1,2
 177 -10 177 -10 173 -22 c 2,3,-1
 151 -88 l 1,4,-1
 100 -88 l 1,5,-1
 117 -12 l 1,6,7
 101 -7 101 -7 94.5 1.5 c 128,-1,8
 88 10 88 10 88 26 c 2,9,-1
 88 51 l 2,10,11
 88 67 88 67 100 77 c 128,-1,12
 112 87 112 87 132 87 c 0,13,14
 158 87 158 87 169.5 77 c 128,-1,15
 181 67 181 67 181 51 c 2,16,-1
 181 25 l 2,0,1
EndSplineSet
EndChar

StartChar: grave.cap
Encoding: 65539 -1 255
Width: 385
Flags: W
LayerCount: 2
Fore
SplineSet
115 829 m 1,0,-1
 204 829 l 1,1,-1
 270 710 l 1,2,-1
 200 710 l 1,3,-1
 115 829 l 1,0,-1
EndSplineSet
EndChar

StartChar: dieresis.cap
Encoding: 65540 -1 256
Width: 431
Flags: W
LayerCount: 2
Fore
SplineSet
184 754 m 2,0,1
 184 710 184 710 129 710 c 0,2,3
 103 710 103 710 89 721.5 c 128,-1,4
 75 733 75 733 75 754 c 2,5,-1
 75 783 l 2,6,7
 75 806 75 806 89 817 c 128,-1,8
 103 828 103 828 129 828 c 0,9,10
 184 828 184 828 184 783 c 2,11,-1
 184 754 l 2,0,1
356 754 m 2,12,13
 356 710 356 710 301 710 c 0,14,15
 247 710 247 710 247 754 c 2,16,-1
 247 783 l 2,17,18
 247 828 247 828 301 828 c 0,19,20
 356 828 356 828 356 783 c 2,21,-1
 356 754 l 2,12,13
EndSplineSet
EndChar

StartChar: acute.cap
Encoding: 65541 -1 257
Width: 385
Flags: W
LayerCount: 2
Fore
SplineSet
185 710 m 1,0,-1
 115 710 l 1,1,-1
 181 829 l 1,2,-1
 270 829 l 1,3,-1
 185 710 l 1,0,-1
EndSplineSet
EndChar

StartChar: circumflex.cap
Encoding: 65542 -1 258
Width: 460
Flags: W
LayerCount: 2
Fore
SplineSet
90 711 m 1,0,-1
 90 779 l 1,1,-1
 230 840 l 1,2,-1
 370 779 l 1,3,-1
 370 711 l 1,4,-1
 230 760 l 1,5,-1
 90 711 l 1,0,-1
EndSplineSet
EndChar

StartChar: caron.cap
Encoding: 65543 -1 259
Width: 460
Flags: W
LayerCount: 2
Fore
SplineSet
230 792 m 1,0,-1
 370 841 l 1,1,-1
 370 773 l 1,2,-1
 230 712 l 1,3,-1
 90 773 l 1,4,-1
 90 841 l 1,5,-1
 230 792 l 1,0,-1
EndSplineSet
EndChar

StartChar: ring.cap
Encoding: 65544 -1 260
Width: 380
Flags: W
LayerCount: 2
Fore
SplineSet
305 700 m 256,0,1
 305 649 305 649 274 624.5 c 128,-1,2
 243 600 243 600 190 600 c 0,3,4
 138 600 138 600 106.5 624.5 c 128,-1,5
 75 649 75 649 75 700 c 256,6,7
 75 751 75 751 106 775.5 c 128,-1,8
 137 800 137 800 190 800 c 0,9,10
 242 800 242 800 273.5 775.5 c 128,-1,11
 305 751 305 751 305 700 c 256,0,1
240 700 m 256,12,13
 240 720 240 720 229 732.5 c 128,-1,14
 218 745 218 745 190 745 c 256,15,16
 162 745 162 745 151 732.5 c 128,-1,17
 140 720 140 720 140 700 c 256,18,19
 140 680 140 680 151 667.5 c 128,-1,20
 162 655 162 655 190 655 c 256,21,22
 218 655 218 655 229 667.5 c 128,-1,23
 240 680 240 680 240 700 c 256,12,13
EndSplineSet
EndChar

StartChar: tilde.cap
Encoding: 65545 -1 261
Width: 460
Flags: W
LayerCount: 2
Fore
SplineSet
370 740 m 1,0,1
 359 731 359 731 347 725 c 0,2,3
 336 719 336 719 321.5 714.5 c 128,-1,4
 307 710 307 710 290 710 c 256,5,6
 273 710 273 710 258 714 c 128,-1,7
 243 718 243 718 228 722.5 c 128,-1,8
 213 727 213 727 198 731 c 128,-1,9
 183 735 183 735 168 735 c 0,10,11
 155 735 155 735 141.5 731 c 128,-1,12
 128 727 128 727 117 722 c 0,13,14
 104 717 104 717 90 710 c 1,15,-1
 90 780 l 1,16,17
 101 788 101 788 113 795 c 1,18,19
 124 800 124 800 138.5 805 c 128,-1,20
 153 810 153 810 170 810 c 0,21,22
 190 810 190 810 206.5 806 c 128,-1,23
 223 802 223 802 237 797.5 c 128,-1,24
 251 793 251 793 264.5 789 c 128,-1,25
 278 785 278 785 292 785 c 0,26,27
 304 785 304 785 318 788.5 c 128,-1,28
 332 792 332 792 343 797 c 0,29,30
 356 802 356 802 370 810 c 1,31,-1
 370 740 l 1,0,1
EndSplineSet
EndChar

StartChar: dotaccentcmb.cap
Encoding: 65546 -1 262
Width: 251
Flags: W
LayerCount: 2
Fore
SplineSet
181 754 m 2,0,1
 181 709 181 709 125 709 c 0,2,3
 70 709 70 709 70 754 c 2,4,-1
 70 783 l 2,5,6
 70 829 70 829 125 829 c 0,7,8
 181 829 181 829 181 783 c 2,9,-1
 181 754 l 2,0,1
EndSplineSet
EndChar

StartChar: foundryicon
Encoding: 65547 -1 263
Width: 864
Flags: W
LayerCount: 2
Fore
SplineSet
144 0 m 1,0,-1
 144 576 l 1,1,-1
 432 576 l 1,2,-1
 432 288 l 1,3,-1
 720 288 l 1,4,-1
 720 0 l 1,5,-1
 144 0 l 1,0,-1
576 432 m 1,6,-1
 576 576 l 1,7,-1
 720 576 l 1,8,-1
 720 432 l 1,9,-1
 576 432 l 1,6,-1
EndSplineSet
EndChar
